<svg width="24" height="24" viewBox="0 0 24 24" fill="none" xmlns="http://www.w3.org/2000/svg">
<path fill-rule="evenodd" clip-rule="evenodd" d="M4 7C4.55228 7 5 7.44772 5 8V19H19V8C19 7.44772 19.4477 7 20 7C20.5523 7 21 7.44772 21 8V20C21 20.5523 20.5523 21 20 21H4C3.44772 21 3 20.5523 3 20V8C3 7.44772 3.44772 7 4 7Z" fill="#1D1D1F"/>
<path fill-rule="evenodd" clip-rule="evenodd" d="M1 4C1 3.44772 1.44772 3 2 3H22C22.5523 3 23 3.44772 23 4V8C23 8.55228 22.5523 9 22 9H2C1.44772 9 1 8.55228 1 8V4ZM3 5V7H21V5H3Z" fill="#1D1D1F"/>
<path fill-rule="evenodd" clip-rule="evenodd" d="M9 12C9 11.4477 9.44772 11 10 11H14C14.5523 11 15 11.4477 15 12C15 12.5523 14.5523 13 14 13H10C9.44772 13 9 12.5523 9 12Z" fill="#1D1D1F"/>
</svg>
