<svg width="56" height="56" viewBox="0 0 56 56" fill="none" xmlns="http://www.w3.org/2000/svg">
<path fill-rule="evenodd" clip-rule="evenodd" d="M28 51.3333C40.8866 51.3333 51.3333 40.8866 51.3333 28C51.3333 15.1134 40.8866 4.66667 28 4.66667C15.1134 4.66667 4.66667 15.1134 4.66667 28C4.66667 40.8866 15.1134 51.3333 28 51.3333ZM28 56C43.464 56 56 43.464 56 28C56 12.536 43.464 0 28 0C12.536 0 0 12.536 0 28C0 43.464 12.536 56 28 56Z" fill="#FF6633"/>
<path d="M22.6047 40.1154V43.1442C22.6047 43.4786 22.859 43.75 23.1724 43.75H25.4431C25.5937 43.75 25.7381 43.6862 25.8445 43.5726C25.951 43.459 26.0108 43.3049 26.0108 43.1442V40.1154H27.1462V43.1442C27.1462 43.4786 27.4005 43.75 27.7139 43.75H29.9846C30.1352 43.75 30.2796 43.6862 30.3861 43.5726C30.4925 43.459 30.5523 43.3049 30.5523 43.1442V40.1154H30.7431C35.2664 40.1154 38.5 37.6123 38.5 33.2823C38.5 29.6428 36.2133 27.6535 33.5361 27.37V27.1568C35.7388 26.5704 37.3578 24.7967 37.3578 21.8502C37.3578 18.1381 34.7464 15.8846 30.7612 15.8846H30.5523V12.8558C30.5523 12.6951 30.4925 12.541 30.3861 12.4274C30.2796 12.3138 30.1352 12.25 29.9846 12.25H27.7139C27.5633 12.25 27.4189 12.3138 27.3125 12.4274C27.206 12.541 27.1462 12.6951 27.1462 12.8558V15.8846H25.845V12.8558C25.845 12.6951 25.7852 12.541 25.6788 12.4274C25.5723 12.3138 25.4279 12.25 25.2774 12.25H23.1724C23.0218 12.25 22.8774 12.3138 22.7709 12.4274C22.6645 12.541 22.6047 12.6951 22.6047 12.8558V15.8846L18.0677 15.9113C17.9171 15.9113 17.7727 15.9751 17.6663 16.0887C17.5598 16.2023 17.5 16.3564 17.5 16.517V18.9135C17.5 19.2454 17.7498 19.5192 18.0631 19.5192L19.7776 19.5071C20.2273 19.5103 20.6576 19.7032 20.9745 20.0437C21.2914 20.3841 21.4693 20.8445 21.4693 21.3244V34.6635C21.4693 35.1454 21.2899 35.6077 20.9705 35.9485C20.6511 36.2893 20.2179 36.4808 19.7662 36.4808L18.0677 36.5074C17.9171 36.5074 17.7727 36.5712 17.6663 36.6848C17.5598 36.7985 17.5 36.9525 17.5 37.1132V39.5363C17.5 39.8707 17.7543 40.142 18.0677 40.142L22.6047 40.1154ZM25.845 19.4877H29.7485C31.8058 19.4877 33.0138 20.6944 33.0138 22.6668C33.0138 24.7773 31.7082 25.967 28.7516 25.967H25.845V19.4877ZM25.845 29.3036H30.0232C32.6051 29.3036 34.0107 30.709 34.0107 32.9964C34.0107 35.3056 32.5892 36.5098 29.1104 36.5098H25.845V29.306V29.3036Z" fill="#FF6633"/>
<path fill-rule="evenodd" clip-rule="evenodd" d="M26.0108 40.1154V43.1442C26.0108 43.3049 25.951 43.459 25.8445 43.5726C25.7381 43.6862 25.5937 43.75 25.4431 43.75H23.1724C22.859 43.75 22.6047 43.4786 22.6047 43.1442V40.1154L18.0677 40.142C17.7543 40.142 17.5 39.8707 17.5 39.5363V37.1132C17.5 36.9525 17.5598 36.7985 17.6663 36.6848C17.7727 36.5712 17.9171 36.5074 18.0677 36.5074L19.7662 36.4808C20.2179 36.4808 20.6511 36.2893 20.9705 35.9485C21.2899 35.6077 21.4693 35.1454 21.4693 34.6635V21.3244C21.4693 20.8445 21.2914 20.3841 20.9745 20.0437C20.6576 19.7032 20.2273 19.5103 19.7776 19.5071L18.0631 19.5192C17.7498 19.5192 17.5 19.2454 17.5 18.9135V16.517C17.5 16.3564 17.5598 16.2023 17.6663 16.0887C17.7727 15.9751 17.9171 15.9113 18.0677 15.9113L22.6047 15.8846V12.8558C22.6047 12.6951 22.6645 12.541 22.7709 12.4274C22.8774 12.3138 23.0218 12.25 23.1724 12.25H25.2774C25.4279 12.25 25.5723 12.3138 25.6788 12.4274C25.7852 12.541 25.845 12.6951 25.845 12.8558V15.8846H27.1462V12.8558C27.1462 12.6951 27.206 12.541 27.3125 12.4274C27.4189 12.3138 27.5633 12.25 27.7139 12.25H29.9846C30.1352 12.25 30.2796 12.3138 30.3861 12.4274C30.4925 12.541 30.5523 12.6951 30.5523 12.8558V15.8846H30.7612C34.7464 15.8846 37.3578 18.1381 37.3578 21.8502C37.3578 23.4304 36.8921 24.6732 36.1206 25.5766C35.4578 26.3524 34.5694 26.8778 33.5565 27.1513C33.5497 27.1531 33.5429 27.155 33.5361 27.1568V27.37C33.5532 27.3718 33.5702 27.3737 33.5873 27.3756C34.6121 27.4927 35.5778 27.8607 36.3772 28.4763C37.6489 29.4557 38.5 31.0619 38.5 33.2823C38.5 37.6123 35.2664 40.1154 30.7431 40.1154H30.5523V43.1442C30.5523 43.3049 30.4925 43.459 30.3861 43.5726C30.2796 43.6862 30.1352 43.75 29.9846 43.75H27.7139C27.4005 43.75 27.1462 43.4786 27.1462 43.1442V40.1154H26.0108ZM25.845 18.3077H23.5743V18.302L22.5592 18.308C22.568 18.3173 22.5768 18.3266 22.5855 18.336C23.0515 18.8366 23.3886 19.4483 23.5743 20.1124V19.4877H25.845V25.967H28.7516C29.7871 25.967 30.6201 25.8211 31.2654 25.5408C31.5712 25.4079 31.8349 25.2449 32.058 25.0529C32.7082 24.4934 33.0138 23.6878 33.0138 22.6668C33.0138 20.6944 31.8058 19.4877 29.7485 19.4877H25.845V18.3077ZM23.5743 35.8754C23.3874 36.5441 23.0469 37.1595 22.5761 37.6619C22.5665 37.6722 22.5568 37.6824 22.547 37.6926L23.5743 37.6866V35.8754ZM31.2654 29.429C30.8879 29.3463 30.4735 29.3036 30.0232 29.3036H25.845V36.5098H29.1104C32.5892 36.5098 34.0107 35.3056 34.0107 32.9964C34.0107 31.3635 33.2944 30.18 31.9451 29.6365C31.7339 29.5514 31.5072 29.482 31.2654 29.429ZM18.0677 18.3344L18.0802 18.3343L18.0677 18.3344Z" fill="#FF6633"/>
</svg>
