<svg width="39" height="39" viewBox="0 0 39 39" fill="none" xmlns="http://www.w3.org/2000/svg">
<path d="M27.5713 19.8145C27.5707 18.5028 26.507 17.4399 25.1953 17.4405C23.8836 17.441 22.8207 18.5047 22.8213 19.8164C22.8213 19.8164 22.8222 22.2061 25.1972 22.2051C27.5722 22.2042 27.5713 19.8145 27.5713 19.8145Z" fill="#FF6633"/>
<path d="M14.5083 20.6827C14.508 20.0268 13.9762 19.4954 13.3203 19.4956C12.6645 19.4959 12.133 20.0278 12.1333 20.6836C12.1333 20.6836 12.1338 21.8711 13.3213 21.8706C14.5088 21.8702 14.5083 20.6827 14.5083 20.6827Z" fill="#FF6633"/>
<path fill-rule="evenodd" clip-rule="evenodd" d="M2.95737 21.8754C2.95718 21.3984 3.34369 21.0116 3.82067 21.0114L34.6957 20.9992C35.1726 20.999 35.5595 21.3855 35.5596 21.8624L35.5613 25.9647C35.5632 30.7344 31.6981 34.6026 26.9283 34.6045L11.5988 34.6106C6.82905 34.6125 2.96089 30.7474 2.959 25.9776L2.95737 21.8754ZM4.68499 22.7383L4.68627 25.9769C4.68778 29.7927 7.78231 32.8848 11.5981 32.8833L26.9276 32.8772C30.7434 32.8757 33.8355 29.7812 33.834 25.9654L33.8327 22.7268L4.68499 22.7383Z" fill="#86868B"/>
<path d="M19.2194 13.918C18.5455 14.5197 17.6089 15.356 15.8509 15.6864C14.1431 16.0073 13.2724 15.8512 12.5865 15.6737C12.5369 15.6608 12.4915 15.6489 12.4496 15.6379L12.4496 15.6379C12.213 15.5759 12.0887 15.5433 11.9365 15.5335C11.7868 15.5238 11.577 15.5378 11.2148 15.6587C10.7921 15.7998 10.589 16.1163 10.456 16.8496C10.4122 17.0909 10.386 17.3121 10.3572 17.5554L10.3572 17.5554C10.3392 17.7077 10.3201 17.8686 10.2951 18.0484C10.2382 18.4571 10.1504 18.9499 9.93443 19.3824C9.70346 19.8447 9.57003 20.4715 9.50006 21.0331C9.46626 21.3044 9.44936 21.5423 9.44098 21.7113C9.4368 21.7955 9.43477 21.8619 9.43379 21.9058C9.4333 21.9278 9.43307 21.9441 9.43297 21.9542L9.43288 21.9645C9.43293 22.4414 8.26306 22.1676 7.78617 22.1678C7.73718 22.1678 7.6974 22.1707 7.66547 22.1754C7.45133 22.2069 7.58967 22.3187 7.66547 22.1754C7.68842 22.132 7.70564 22.0652 7.7056 21.9658L7.70561 21.9622L7.70563 21.956L7.70579 21.9361C7.70596 21.9195 7.7063 21.8963 7.70695 21.8673C7.70825 21.8092 7.7108 21.7271 7.71582 21.6257C7.72585 21.4237 7.74586 21.142 7.78604 20.8195C7.86404 20.1935 8.02689 19.3358 8.3892 18.6105C8.46984 18.4491 8.53017 18.1996 8.58432 17.8104C8.59945 17.7016 8.61492 17.573 8.63161 17.4343C8.66567 17.1512 8.7048 16.826 8.75645 16.5413C8.91965 15.6417 9.30968 14.4736 10.668 14.0203C11.1964 13.8439 11.6318 13.783 12.0475 13.8098C12.3808 13.8313 12.6834 13.9121 12.9148 13.9738L12.9148 13.9739C12.9515 13.9837 12.9864 13.993 13.0194 14.0015C13.4758 14.1196 14.0895 14.2599 15.5319 13.9888C16.8149 13.7477 17.4508 13.1807 18.0853 12.6149L18.1474 12.5596C18.4685 12.2738 18.8741 11.9139 19.3852 11.7012C19.9428 11.4691 20.5526 11.4357 21.2596 11.6268C21.9369 11.8098 22.442 12.1062 22.8263 12.4883C23.2009 12.8607 23.4173 13.2734 23.5723 13.6011C23.6016 13.663 23.6288 13.7209 23.6542 13.775L23.6543 13.7752C23.9287 14.3595 23.9991 14.5093 24.2943 14.6146C24.4332 14.6642 24.5827 14.6667 24.8198 14.595C25.0247 14.533 25.2183 14.4433 25.4772 14.3233L25.4772 14.3233L25.4773 14.3232C25.5709 14.2798 25.6729 14.2325 25.7871 14.1812C26.5951 13.8176 27.7132 13.4114 29.111 14.0461C29.8323 14.3736 30.2888 14.877 30.5207 15.4945C30.7355 16.0667 30.7294 16.6667 30.694 17.151C30.679 17.3567 30.6562 17.5654 30.6355 17.7545L30.6355 17.7547L30.6236 17.8641C30.5993 18.0898 30.5804 18.2861 30.5743 18.4668C30.5614 18.8454 30.6122 19.0245 30.6717 19.118C31.2242 19.9853 31.2319 20.8259 31.0888 21.4418C31.0189 21.7423 30.9146 21.9869 30.8266 22.1586C30.7822 22.2452 30.7409 22.3153 30.7084 22.367C30.6921 22.3929 30.6779 22.4144 30.6664 22.4312L30.6513 22.453L30.6454 22.4612L30.6429 22.4647L30.6412 22.467C30.6412 22.467 30.6407 22.4677 29.9762 21.9804L30.6406 22.4677C29.9764 22.3673 30.1475 22.7137 29.7629 22.4316C29.3815 22.1519 28.9672 21.8399 29.2407 21.456L29.2464 21.4471C29.255 21.4336 29.2706 21.4075 29.2895 21.3708C29.3278 21.2959 29.3751 21.1852 29.4063 21.0509C29.4652 20.7973 29.4725 20.4504 29.2149 20.0459C28.8694 19.5035 28.8316 18.8902 28.848 18.408C28.8565 18.1585 28.8817 17.9072 28.9062 17.6794L28.9194 17.5583C28.9399 17.3696 28.9587 17.1971 28.9713 17.025C29.0024 16.6001 28.9821 16.3108 28.9036 16.1018C28.8421 15.938 28.726 15.7682 28.3969 15.6188C27.6938 15.2995 27.1706 15.4528 26.4958 15.7564C26.4307 15.7856 26.3598 15.8186 26.2846 15.8536L26.2846 15.8536C26 15.9861 25.6528 16.1476 25.3199 16.2483C24.8571 16.3882 24.3087 16.4536 23.714 16.2415C22.6935 15.8775 22.3173 15.028 22.0886 14.5117C22.0608 14.4489 22.0352 14.391 22.0108 14.3396C21.8809 14.0649 21.7671 13.8709 21.6084 13.7131C21.4594 13.5649 21.2283 13.4076 20.8089 13.2942C20.4191 13.1888 20.2065 13.2303 20.0488 13.2959C19.8448 13.3808 19.6424 13.5413 19.2958 13.8498L19.2194 13.918Z" fill="#86868B"/>
<path d="M21.6303 14.7433C21.6311 16.7108 20.0367 18.3064 18.0692 18.3072C16.1017 18.308 14.5061 16.7136 14.5053 14.7461C14.5045 12.7786 16.0989 11.183 18.0664 11.1822C20.0339 11.1814 21.6295 12.7758 21.6303 14.7433Z" fill="#FF6633"/>
<path fill-rule="evenodd" clip-rule="evenodd" d="M2.24326 9.2279C2.66979 9.01442 3.18862 9.18713 3.4021 9.61367L9.3443 21.4863C9.55778 21.9128 9.38506 22.4317 8.95853 22.6452C8.532 22.8586 8.01317 22.6859 7.79969 22.2594L1.85749 10.3867C1.64401 9.9602 1.81672 9.44137 2.24326 9.2279Z" fill="#86868B"/>
<path fill-rule="evenodd" clip-rule="evenodd" d="M36.2657 9.21352C36.6924 9.42666 36.8655 9.94535 36.6524 10.3721L30.7196 22.2494C30.5065 22.6761 29.9878 22.8492 29.5611 22.6361C29.1344 22.423 28.9612 21.9043 29.1744 21.4776L35.1072 9.60021C35.3203 9.17351 35.839 9.00038 36.2657 9.21352Z" fill="#86868B"/>
</svg>
