<svg width="54" height="56" viewBox="0 0 54 56" fill="none" xmlns="http://www.w3.org/2000/svg">
<path fill-rule="evenodd" clip-rule="evenodd" d="M24.3129 1.02012C25.489 0.351809 26.8226 0 28.18 0C29.5376 0 30.8712 0.351838 32.0474 1.02021C32.0492 1.02123 32.051 1.02225 32.0528 1.02327L50.1254 11.207C51.3017 11.8767 52.2787 12.8396 52.9584 13.9992C53.6381 15.1588 53.9967 16.4743 53.9981 17.8137V38.1863C53.9967 39.5257 53.6381 40.8412 52.9584 42.0008C52.2787 43.1604 51.3017 44.1233 50.1254 44.793L50.1154 44.7987L32.0528 54.9767C32.0512 54.9776 32.0497 54.9785 32.0481 54.9794C30.8718 55.648 29.5379 56 28.18 56C26.8223 56 25.4884 55.648 24.3121 54.9795C24.3105 54.9785 24.3089 54.9776 24.3073 54.9767L15.281 49.8905C14.043 49.1929 13.6129 47.6377 14.3203 46.4169C15.0277 45.1961 16.6048 44.7719 17.8429 45.4695L26.8892 50.567C27.2816 50.7905 27.7268 50.9081 28.18 50.9081C28.6332 50.9081 29.0785 50.7905 29.4709 50.5671L29.4809 50.5614L47.5436 40.3833C47.5449 40.3826 47.5463 40.3818 47.5477 40.381C47.9379 40.1579 48.2621 39.8378 48.4879 39.4526C48.7145 39.0661 48.834 38.6276 48.8345 38.1811V17.8189C48.834 17.3724 48.7145 16.9339 48.4879 16.5474C48.2621 16.1622 47.9379 15.8421 47.5477 15.619C47.5463 15.6182 47.5449 15.6174 47.5436 15.6167L29.4709 5.43297C29.0785 5.20952 28.6332 5.09186 28.18 5.09186C27.7268 5.09186 27.2816 5.2095 26.8891 5.43295L26.8792 5.43862L8.81651 15.6167C8.81516 15.6174 8.8138 15.6182 8.81244 15.619C8.42216 15.8421 8.09796 16.1622 7.87217 16.5474C7.15859 17.7647 5.57936 18.1812 4.34487 17.4775C3.11038 16.7738 2.6881 15.2166 3.40168 13.9992C4.08141 12.8396 5.05842 11.8767 6.23471 11.207L6.24466 11.2013L24.3129 1.02012Z" fill="#FF6633"/>
<path fill-rule="evenodd" clip-rule="evenodd" d="M3.39989 13.5171C4.10935 12.2743 5.6787 11.8497 6.90515 12.5685L28.017 24.9433L49.1288 12.5685C50.3552 11.8497 51.9246 12.2743 52.634 13.5171C53.3435 14.7598 52.9244 16.35 51.6979 17.0689L29.3015 30.1967C28.5068 30.6625 27.5271 30.6625 26.7324 30.1967L4.33598 17.0689C3.10954 16.35 2.69044 14.7598 3.39989 13.5171Z" fill="#FF6633"/>
<path fill-rule="evenodd" clip-rule="evenodd" d="M28.0198 25.4551C29.4266 25.4551 30.567 26.5872 30.567 27.9837V53.4719C30.567 54.8684 29.4266 56.0005 28.0198 56.0005C26.6131 56.0005 25.4727 54.8684 25.4727 53.4719V27.9837C25.4727 26.5872 26.6131 25.4551 28.0198 25.4551Z" fill="#FF6633"/>
<path fill-rule="evenodd" clip-rule="evenodd" d="M0 28.0005C0 26.5947 1.14041 25.4551 2.54717 25.4551H12.0991C13.5058 25.4551 14.6462 26.5947 14.6462 28.0005C14.6462 29.4063 13.5058 30.546 12.0991 30.546H2.54717C1.14041 30.546 0 29.4063 0 28.0005ZM3.82076 35.6369C3.82076 34.2311 4.96116 33.0914 6.36792 33.0914H17.8302C19.237 33.0914 20.3774 34.2311 20.3774 35.6369C20.3774 37.0427 19.237 38.1824 17.8302 38.1824H6.36792C4.96116 38.1824 3.82076 37.0427 3.82076 35.6369ZM0.955189 43.2733C0.955189 41.8674 2.0956 40.7278 3.50236 40.7278H10.1887C11.5954 40.7278 12.7358 41.8674 12.7358 43.2733C12.7358 44.6791 11.5954 45.8187 10.1887 45.8187H3.50236C2.0956 45.8187 0.955189 44.6791 0.955189 43.2733Z" fill="#FF6633"/>
</svg>
