<svg width="48" height="48" viewBox="0 0 48 48" fill="none" xmlns="http://www.w3.org/2000/svg">
<g clip-path="url(#clip0_1636_309302)">
<path fill-rule="evenodd" clip-rule="evenodd" d="M24 4.36364C13.1551 4.36364 4.36364 13.1551 4.36364 24C4.36364 34.8449 13.1551 43.6364 24 43.6364C34.8449 43.6364 43.6364 34.8449 43.6364 24C43.6364 13.1551 34.8449 4.36364 24 4.36364ZM0 24C0 10.7452 10.7452 0 24 0C37.2548 0 48 10.7452 48 24C48 37.2548 37.2548 48 24 48C10.7452 48 0 37.2548 0 24Z" fill="#FF6633"/>
<path fill-rule="evenodd" clip-rule="evenodd" d="M24.4279 8.57129C25.6114 8.57129 26.5707 9.56903 26.5707 10.7998V22.7936L33.9573 26.6347C35.0158 27.1852 35.4449 28.5238 34.9156 29.6246C34.3864 30.7255 33.0993 31.1717 32.0408 30.6212L23.4697 26.1642C22.7437 25.7867 22.2852 25.015 22.2852 24.1709V10.7998C22.2852 9.56903 23.2445 8.57129 24.4279 8.57129Z" fill="#FF6633"/>
</g>
<defs>
<clipPath id="clip0_1636_309302">
<rect width="48" height="48" fill="white"/>
</clipPath>
</defs>
</svg>
