<svg width="56" height="56" viewBox="0 0 56 56" fill="none" xmlns="http://www.w3.org/2000/svg">
<path fill-rule="evenodd" clip-rule="evenodd" d="M7.17355 14.625C5.93077 14.625 5.09091 15.484 5.09091 16.3594V40.6406C5.09091 41.516 5.93077 42.375 7.17355 42.375H48.8264C50.0692 42.375 50.9091 41.516 50.9091 40.6406V16.3594C50.9091 15.484 50.0692 14.625 48.8264 14.625H7.17355ZM0 16.3594C0 12.7647 3.30428 10 7.17355 10H48.8264C52.6957 10 56 12.7647 56 16.3594V40.6406C56 44.2353 52.6957 47 48.8264 47H7.17355C3.30428 47 0 44.2353 0 40.6406V16.3594Z" fill="#FF6633"/>
<path fill-rule="evenodd" clip-rule="evenodd" d="M0 24C0 22.8954 1.13964 22 2.54545 22H53.4545C54.8604 22 56 22.8954 56 24C56 25.1046 54.8604 26 53.4545 26H2.54545C1.13964 26 0 25.1046 0 24Z" fill="#FF6633"/>
</svg>
