<svg width="41" height="42" viewBox="0 0 41 42" fill="none" xmlns="http://www.w3.org/2000/svg">
<path fill-rule="evenodd" clip-rule="evenodd" d="M11.7984 14.9829C11.9621 14.7998 12.1961 14.6951 12.4418 14.695L29.0668 14.6884C29.3124 14.6883 29.5465 14.7928 29.7104 14.9758C29.8743 15.1588 29.9525 15.4029 29.9255 15.6471L27.559 37.023C27.5105 37.4604 27.141 37.7914 26.7009 37.7916L14.8259 37.7963C14.3858 37.7965 14.016 37.4657 13.9673 37.0284L11.5838 15.6543C11.5566 15.4102 11.6346 15.166 11.7984 14.9829ZM13.4074 16.4219L15.5982 36.0687L25.9272 36.0646L28.1025 16.416L13.4074 16.4219Z" fill="#86868B"/>
<path fill-rule="evenodd" clip-rule="evenodd" d="M9.20347 9.62145C9.20328 9.14448 9.58979 8.75766 10.0668 8.75747L31.4418 8.74901C31.9187 8.74882 32.3055 9.13533 32.3057 9.6123L32.3081 15.5498C32.3083 16.0268 31.9218 16.4136 31.4448 16.4138L10.0698 16.4222C9.59282 16.4224 9.20601 16.0359 9.20582 15.5589L9.20347 9.62145ZM10.9311 10.4844L10.9327 14.6946L30.5805 14.6868L30.5788 10.4766L10.9311 10.4844Z" fill="#86868B"/>
<path d="M27.8856 25.053C27.8872 28.988 24.6985 32.1792 20.7635 32.1808C16.8284 32.1823 13.6372 28.9936 13.6356 25.0586C13.6341 21.1236 16.8228 17.9323 20.7578 17.9308C24.6928 17.9292 27.8841 21.1179 27.8856 25.053Z" fill="#FF6633"/>
<path fill-rule="evenodd" clip-rule="evenodd" d="M11.6005 3.47468C11.716 3.0119 12.1848 2.73038 12.6475 2.84588L17.398 4.0315C17.6426 4.09255 17.8483 4.25744 17.9612 4.48289L20.3381 9.23195C20.5515 9.65849 20.3788 10.1773 19.9523 10.3908C19.5258 10.6043 19.0069 10.4316 18.7934 10.005L16.5943 5.61118L12.2293 4.52174C11.7665 4.40624 11.485 3.93746 11.6005 3.47468Z" fill="#86868B"/>
</svg>
