<svg width="24" height="24" viewBox="0 0 24 24" fill="none" xmlns="http://www.w3.org/2000/svg">
<path fill-rule="evenodd" clip-rule="evenodd" d="M17.7177 4.75C17.5165 4.75 17.3172 4.78963 17.1313 4.86664C16.9454 4.94365 16.7765 5.05652 16.6342 5.19881L5.88157 15.9514L5.06893 18.9311L8.0486 18.1185L18.8012 7.36584C18.9435 7.22355 19.0564 7.05462 19.1334 6.86871C19.2104 6.68281 19.25 6.48355 19.25 6.28232C19.25 6.08109 19.2104 5.88183 19.1334 5.69593C19.0564 5.51002 18.9435 5.3411 18.8012 5.19881C18.6589 5.05652 18.49 4.94365 18.3041 4.86664C18.1182 4.78963 17.9189 4.75 17.7177 4.75ZM16.5573 3.48082C16.9252 3.32843 17.3195 3.25 17.7177 3.25C18.1159 3.25 18.5102 3.32843 18.8781 3.48082C19.246 3.63321 19.5803 3.85657 19.8619 4.13815C20.1434 4.41972 20.3668 4.754 20.5192 5.1219C20.6716 5.4898 20.75 5.88411 20.75 6.28232C20.75 6.68053 20.6716 7.07484 20.5192 7.44274C20.3668 7.81064 20.1434 8.14492 19.8619 8.4265L8.96842 19.3199C8.87613 19.4122 8.76135 19.4788 8.63543 19.5132L4.19736 20.7236C3.9377 20.7944 3.66 20.7206 3.46969 20.5303C3.27937 20.34 3.20563 20.0623 3.27644 19.8027L4.48683 15.3646C4.52117 15.2387 4.58778 15.1239 4.68007 15.0316L15.5735 4.13815C15.8551 3.85657 16.1894 3.63321 16.5573 3.48082Z" fill="#1D1D1F"/>
</svg>
