<svg width="24" height="24" viewBox="0 0 24 24" fill="none" xmlns="http://www.w3.org/2000/svg">
<path d="M1 5C1 4.44772 1.44772 4 2 4H22C22.5523 4 23 4.44772 23 5C23 5.55228 22.5523 6 22 6H2C1.44772 6 1 5.55228 1 5Z" fill="#686870"/>
<path d="M4.5 12C4.5 11.4477 4.94772 11 5.5 11H18.5C19.0523 11 19.5 11.4477 19.5 12C19.5 12.5523 19.0523 13 18.5 13H5.5C4.94772 13 4.5 12.5523 4.5 12Z" fill="#686870"/>
<path d="M8.5 19C8.5 18.4477 8.94772 18 9.5 18H14.5C15.0523 18 15.5 18.4477 15.5 19C15.5 19.5523 15.0523 20 14.5 20H9.5C8.94772 20 8.5 19.5523 8.5 19Z" fill="#686870"/>
</svg>
