<svg width="31" height="31" viewBox="0 0 31 31" fill="none" xmlns="http://www.w3.org/2000/svg">
<path fill-rule="evenodd" clip-rule="evenodd" d="M4.7447 8.89148C3.86727 10.3764 3.5785 12.3228 3.85739 13.996C4.40595 17.2869 7.26004 20.2527 10.2882 22.4954C11.765 23.5891 13.2088 24.4566 14.2853 25.0511C14.7822 25.3254 15.1983 25.5402 15.5 25.691C15.8017 25.5402 16.2178 25.3254 16.7147 25.0511C17.7912 24.4566 19.235 23.5891 20.7118 22.4954C23.7401 20.2527 26.5942 17.287 27.1427 13.996C27.4215 12.3228 27.1327 10.3764 26.2552 8.89148C25.4105 7.46187 24.033 6.45833 21.9584 6.45833C19.8825 6.45833 18.6175 7.4684 17.825 8.52501C17.4209 9.06391 17.147 9.60963 16.9749 10.0229C16.8895 10.2278 16.8311 10.3953 16.7953 10.5066C16.7774 10.5621 16.7654 10.6032 16.7585 10.6274L16.7521 10.6507L16.7526 10.6487C16.7522 10.6501 16.7524 10.6494 16.7521 10.6507C16.752 10.6512 16.7522 10.6504 16.7521 10.6507C16.6065 11.2229 16.0909 11.625 15.5 11.625C14.909 11.625 14.3937 11.224 14.2482 10.6517C14.2481 10.6515 14.2483 10.6522 14.2482 10.6517L14.2415 10.6274C14.2346 10.6032 14.2225 10.5621 14.2047 10.5066C14.1689 10.3953 14.1105 10.2277 14.0251 10.0228C13.853 9.6096 13.5792 9.06388 13.175 8.52499C12.3826 7.4684 11.1176 6.45833 9.04159 6.45833C6.96688 6.45834 5.58944 7.46189 4.7447 8.89148ZM15.5 10.3333C14.2469 10.6466 14.247 10.6471 14.2472 10.6477L14.2478 10.6503L14.2482 10.6517M15.5 7.33789C15.4188 7.21762 15.3327 7.0964 15.2417 6.97499C14.0966 5.44825 12.1324 3.87499 9.04158 3.875C5.94945 3.87501 3.7748 5.4548 2.52063 7.57728C1.29915 9.64445 0.942194 12.2188 1.30921 14.4207C2.03489 18.7743 5.63915 22.2669 8.75074 24.5714C10.3438 25.7512 11.8903 26.6795 13.0366 27.3125C13.6109 27.6296 14.0877 27.8742 14.4234 28.0407C14.5914 28.124 14.7243 28.1879 14.8166 28.2316C14.8628 28.2534 14.8989 28.2702 14.9242 28.2819L14.954 28.2957L14.9627 28.2996L14.9655 28.3009C14.9659 28.301 14.9672 28.3016 15.5 27.125L14.9672 28.3016C15.3058 28.455 15.6942 28.455 16.0328 28.3016L15.5 27.125C16.0328 28.3016 16.0324 28.3018 16.0328 28.3016L16.0373 28.2996L16.0459 28.2957L16.0757 28.2819C16.1011 28.2702 16.1371 28.2534 16.1833 28.2316C16.2757 28.1879 16.4086 28.124 16.5766 28.0407C16.9123 27.8743 17.3891 27.6296 17.9634 27.3125C19.1098 26.6795 20.6562 25.7512 22.2493 24.5714C25.361 22.2669 28.9653 18.7743 29.6908 14.4207C30.0578 12.2188 29.7008 9.64442 28.4793 7.57727C27.2251 5.4548 25.0505 3.875 21.9584 3.875C18.8677 3.875 16.9035 5.44827 15.7584 6.97499C15.6673 7.09639 15.5813 7.21762 15.5 7.33789Z" fill="#1A1A1A"/>
</svg>
