<svg width="74" height="88" viewBox="0 0 74 88" fill="none" xmlns="http://www.w3.org/2000/svg">
<path d="M72.4467 68.5788C71.1665 71.5675 69.585 74.4173 67.7266 77.0841C65.2441 80.6352 63.2053 83.0891 61.6428 84.4549C59.2157 86.6866 56.6084 87.8348 53.8207 87.8996C51.8236 87.8996 49.4104 87.3301 46.5996 86.1727C43.7796 85.0198 41.1907 84.4549 38.8191 84.4549C36.3366 84.4549 33.6738 85.0198 30.8214 86.1727C27.9736 87.3301 25.6714 87.9367 23.91 87.9922C21.2426 88.108 18.5751 86.932 15.9169 84.4549C14.2203 82.9734 12.0983 80.4269 9.55107 76.8248C6.82351 72.9865 4.58137 68.5187 2.82464 63.4396C0.943088 57.9438 0 52.6287 0 47.4802C0 41.5862 1.27132 36.4979 3.81858 32.2383C5.7452 28.8931 8.49957 26.1011 11.8163 24.1313C15.0869 22.1667 18.8205 21.1088 22.6341 21.0663C24.7607 21.0663 27.5483 21.7237 31.0017 23.0201C34.455 24.3165 36.6741 24.974 37.6403 24.974C38.3707 24.974 40.8255 24.2008 45.0047 22.6682C48.9481 21.2468 52.2766 20.6588 55.0042 20.8903C62.401 21.4876 67.9531 24.4045 71.6469 29.6641C65.036 33.6783 61.7676 39.2944 61.8323 46.5032C61.8878 52.1194 63.9265 56.791 67.9208 60.4996C69.6866 62.192 71.747 63.5462 74 64.4952C73.51 65.9166 72.9922 67.2732 72.4467 68.5788ZM55.4942 1.76401C55.4942 6.16247 53.8854 10.2739 50.6909 14.0751C46.8261 18.5939 42.1569 21.2098 37.0948 20.7977C37.0286 20.2446 36.9961 19.688 36.9977 19.131C36.9977 14.9038 38.8284 10.385 42.0968 6.68565C43.7241 4.81515 45.7952 3.25486 48.3055 2.01403C50.8111 0.791722 53.1781 0.115749 55.4064 0C55.4665 0.592634 55.4942 1.18064 55.4942 1.76401Z" fill="black"/>
</svg>
