<svg width="41" height="42" viewBox="0 0 41 42" fill="none" xmlns="http://www.w3.org/2000/svg">
<path fill-rule="evenodd" clip-rule="evenodd" d="M21.771 7.34931C20.0792 8.34535 19.2412 9.59583 19.2417 10.8044C19.2422 12.0129 20.0812 13.2627 21.7737 14.2574C23.4462 15.2404 25.8131 15.8756 28.4738 15.8746C31.1345 15.8735 33.5009 15.2364 35.1726 14.2521C36.8644 13.2561 37.7024 12.0056 37.7019 10.797C37.7014 9.58852 36.8624 8.3387 35.1699 7.344C33.4974 6.36104 31.1304 5.72579 28.4698 5.72684C25.8091 5.72789 23.4427 6.36502 21.771 7.34931ZM20.8946 5.86086C22.8752 4.69475 25.5551 4.00072 28.4691 3.99957C31.3831 3.99841 34.0636 4.69032 36.0451 5.85486C38.0066 7.00767 39.4284 8.7257 39.4292 10.7964C39.43 12.867 38.0096 14.5862 36.049 15.7405C34.0684 16.9067 31.3885 17.6007 28.4745 17.6018C25.5605 17.603 22.88 16.9111 20.8985 15.7465C18.937 14.5937 17.5152 12.8757 17.5144 10.805C17.5136 8.73438 18.934 7.01522 20.8946 5.86086Z" fill="#86868B"/>
<path d="M33.8173 10.8005C33.8179 12.1121 31.4258 13.1764 28.4745 13.1776C25.5233 13.1787 23.1304 12.1164 23.1298 10.8047C23.1293 9.49301 25.5214 8.42874 28.4727 8.42757C31.4239 8.4264 33.8168 9.48878 33.8173 10.8005Z" fill="#FF6633"/>
<path fill-rule="evenodd" clip-rule="evenodd" d="M17.5156 10.8048C17.5156 10.8047 17.5156 10.8047 18.3793 10.8043C19.2429 10.804 19.2429 10.804 19.2429 10.8041L19.2476 22.679C19.2481 23.8875 20.0871 25.1374 21.7796 26.1321C23.4522 27.115 25.8191 27.7503 28.4797 27.7492C31.1404 27.7482 33.5068 27.111 35.1786 26.1267C36.8703 25.1307 37.7083 23.8802 37.7078 22.6717L37.7031 10.7967L39.4304 10.796L39.4351 22.671C39.4359 24.7417 38.0155 26.4608 36.0549 27.6152C34.0743 28.7813 31.3944 29.4753 28.4804 29.4765C25.5664 29.4776 22.8859 28.7857 20.9044 27.6212C18.9429 26.4684 17.5211 24.7503 17.5203 22.6797L17.5156 10.8048Z" fill="#86868B"/>
<path fill-rule="evenodd" clip-rule="evenodd" d="M5.06693 25.4249C5.52275 25.2844 6.00613 25.5401 6.14658 25.9959L7.85147 31.529C8.18834 32.6223 9.04464 33.4779 10.1382 33.8139L21.6206 37.342C22.5256 37.6201 23.5051 37.5145 24.3301 37.0501L32.2129 32.6119C32.6285 32.3779 33.1551 32.5251 33.3891 32.9407C33.6231 33.3563 33.4759 33.883 33.0603 34.117L25.1775 38.5552C23.94 39.2519 22.4708 39.4102 21.1133 38.9931L9.63091 35.465C7.99054 34.961 6.70609 33.6776 6.20078 32.0376L4.49589 26.5046C4.35544 26.0487 4.6111 25.5653 5.06693 25.4249Z" fill="#86868B"/>
<path d="M34.3649 35.2359C32.2328 32.7969 23.508 30.0845 16.4663 28.6791C7.55939 26.9014 -1.34615 28.6862 2.80751 22.1533C6.80009 15.8737 30.875 14.3019 35.5678 33.9378C35.9503 35.5379 34.8267 35.7642 34.3649 35.2359Z" fill="#FF6633"/>
<path fill-rule="evenodd" clip-rule="evenodd" d="M18.6707 17.7209C18.7866 18.1836 18.5055 18.6526 18.0428 18.7685C16.7913 19.0819 15.5722 19.9955 14.4843 21.3493C13.403 22.6947 12.5047 24.4107 11.881 26.1966C11.2568 27.984 10.9234 29.7965 10.9364 31.3229C10.9497 32.8861 11.3218 33.9728 11.9038 34.5263C12.2494 34.855 12.263 35.4017 11.9343 35.7473C11.6056 36.0929 11.0589 36.1066 10.7133 35.7778C9.62273 34.7405 9.2239 33.0669 9.20916 31.3377C9.19411 29.5716 9.5755 27.5595 10.2503 25.6272C10.9256 23.6933 11.9105 21.7945 13.1379 20.2673C14.3587 18.7482 15.8737 17.5311 17.6232 17.093C18.0858 16.9771 18.5549 17.2582 18.6707 17.7209ZM25.8103 20.1488C25.8953 20.6181 25.5838 21.0675 25.1144 21.1525C24.1592 21.3256 23.0569 21.9571 21.959 22.9981C20.8722 24.0287 19.8481 25.4064 19.0432 26.9598C17.4155 30.1007 16.7817 33.7507 18.0377 36.5804C18.2312 37.0163 18.0346 37.5266 17.5987 37.7201C17.1627 37.9136 16.6524 37.7171 16.4589 37.2811C14.9031 33.7759 15.7605 29.5403 17.5096 26.1651C18.3929 24.4605 19.5285 22.9225 20.7705 21.7448C22.0014 20.5776 23.3969 19.7083 24.8065 19.4529C25.2758 19.3679 25.7252 19.6794 25.8103 20.1488Z" fill="#86868B"/>
</svg>
