<svg width="24" height="24" viewBox="0 0 24 24" fill="none" xmlns="http://www.w3.org/2000/svg">
<path fill-rule="evenodd" clip-rule="evenodd" d="M4.8 9C4.31163 9 4 9.36521 4 9.71429V18.2857C4 18.6348 4.31163 19 4.8 19H19.2C19.6884 19 20 18.6348 20 18.2857V9.71429C20 9.36521 19.6884 9 19.2 9H4.8ZM2 9.71429C2 8.16981 3.30014 7 4.8 7H19.2C20.6999 7 22 8.16981 22 9.71429V18.2857C22 19.8302 20.6999 21 19.2 21H4.8C3.30014 21 2 19.8302 2 18.2857V9.71429Z" fill="black"/>
<path fill-rule="evenodd" clip-rule="evenodd" d="M7.92142 3.77329C8.49062 3.26733 9.23989 3 10 3H14C14.7601 3 15.5094 3.26733 16.0786 3.77329C16.6516 4.28265 17 5.00051 17 5.77778V20C17 20.5523 16.5523 21 16 21C15.4477 21 15 20.5523 15 20V5.77778C15 5.61206 14.927 5.42554 14.7498 5.26811C14.5689 5.10727 14.3008 5 14 5H10C9.69925 5 9.4311 5.10727 9.25015 5.26811C9.07304 5.42554 9 5.61206 9 5.77778V20C9 20.5523 8.55228 21 8 21C7.44772 21 7 20.5523 7 20V5.77778C7 5.00051 7.34839 4.28265 7.92142 3.77329Z" fill="black"/>
</svg>
