<svg width="24" height="24" viewBox="0 0 24 24" fill="none" xmlns="http://www.w3.org/2000/svg">
<path fill-rule="evenodd" clip-rule="evenodd" d="M12 3C10.1508 3 8.37273 3.75107 7.05815 5.09552C5.74283 6.44073 5 8.26992 5 10.1818C5 12.9701 6.77507 15.6834 8.73362 17.7977C9.69377 18.8342 10.6572 19.683 11.3815 20.2729C11.6165 20.4643 11.8255 20.6277 12 20.7608C12.1745 20.6277 12.3835 20.4643 12.6185 20.2729C13.3428 19.683 14.3062 18.8342 15.2664 17.7977C17.2249 15.6834 19 12.9701 19 10.1818C19 8.26992 18.2572 6.44073 16.9418 5.09552C15.6273 3.75107 13.8492 3 12 3ZM12 22C11.4367 22.8262 11.4364 22.8261 11.4361 22.8259L11.4334 22.824L11.4273 22.8198L11.4065 22.8055C11.389 22.7932 11.364 22.7758 11.3321 22.7532C11.2684 22.7081 11.1771 22.6425 11.0621 22.5576C10.8322 22.3878 10.5071 22.1402 10.1185 21.8237C9.34284 21.192 8.30623 20.2794 7.26638 19.1568C5.22493 16.953 3 13.7572 3 10.1818C3 7.75381 3.94288 5.42084 5.62814 3.69728C7.31415 1.97296 9.60571 1 12 1C14.3943 1 16.6859 1.97296 18.3719 3.69728C20.0571 5.42084 21 7.75381 21 10.1818C21 13.7572 18.7751 16.953 16.7336 19.1568C15.6938 20.2794 14.6572 21.192 13.8815 21.8237C13.4929 22.1402 13.1678 22.3878 12.9379 22.5576C12.8229 22.6425 12.7316 22.7081 12.6679 22.7532C12.636 22.7758 12.611 22.7932 12.5935 22.8055L12.5727 22.8198L12.5666 22.824L12.5646 22.8254C12.5643 22.8256 12.5633 22.8262 12 22ZM12 22L12.5633 22.8262C12.2235 23.0579 11.776 23.0576 11.4361 22.8259L12 22Z" fill="#1D1D1F"/>
<path fill-rule="evenodd" clip-rule="evenodd" d="M12 8C10.8954 8 10 8.89543 10 10C10 11.1046 10.8954 12 12 12C13.1046 12 14 11.1046 14 10C14 8.89543 13.1046 8 12 8ZM8 10C8 7.79086 9.79086 6 12 6C14.2091 6 16 7.79086 16 10C16 12.2091 14.2091 14 12 14C9.79086 14 8 12.2091 8 10Z" fill="#1D1D1F"/>
</svg>
