<svg width="48" height="54" viewBox="0 0 48 54" fill="none" xmlns="http://www.w3.org/2000/svg">
<path fill-rule="evenodd" clip-rule="evenodd" d="M27.6228 10.4746C32.307 10.4746 36.5482 12.3361 39.6096 15.3468L33.3728 21.4074L28.2368 16.2688L16.1885 27.1492L19.8728 27.1404L19.9385 36.3866L25.6008 36.4652V32.6767C25.6008 31.8421 26.4429 32.0213 28.2324 32.0431H28.2456H28.2587C30.0482 32.0169 30.8903 31.8421 30.8903 32.6767V36.4652L36.4429 36.3866L39.0614 39.1744C36.0526 41.8748 32.0394 43.5266 27.6315 43.5266C18.2938 43.5266 10.7236 36.1288 10.7236 27.0006C10.7236 17.8724 18.285 10.4746 27.6228 10.4746ZM19.8377 21.7526L22.8333 19.2882L22.8684 17.9554H19.8333V21.7526H19.8377Z" fill="#2B2C86"/>
<path fill-rule="evenodd" clip-rule="evenodd" d="M27.6228 0C35.2763 0 42.2018 3.04127 47.2061 7.95711L43.4912 11.5708C39.4386 7.58569 33.8246 5.12122 27.6228 5.12122C15.2588 5.12122 5.23684 14.9179 5.23684 27C5.23684 39.0821 15.2588 48.8788 27.6228 48.8788C33.4605 48.8788 38.7719 46.694 42.7588 43.1196L46.3026 46.8906C41.386 51.3039 34.8289 54 27.6272 54C12.3684 54 0 41.9136 0 27C0 12.0864 12.3684 0 27.6228 0Z" fill="#E52B0E"/>
</svg>
