<svg width="53" height="53" viewBox="0 0 53 53" fill="none" xmlns="http://www.w3.org/2000/svg">
<path fill-rule="evenodd" clip-rule="evenodd" d="M7.95 5.29999C7.24718 5.29999 6.57314 5.57919 6.07617 6.07616C5.5792 6.57313 5.3 7.24717 5.3 7.94999V43.9523L11.3762 37.8761C11.8731 37.3791 12.5472 37.0999 13.25 37.0999H45.05C45.7528 37.0999 46.4269 36.8208 46.9238 36.3238C47.4208 35.8268 47.7 35.1528 47.7 34.45V7.94999C47.7 7.24717 47.4208 6.57313 46.9238 6.07616C46.4269 5.57919 45.7528 5.29999 45.05 5.29999H7.95ZM2.3285 2.3285C3.81942 0.837585 5.84153 0 7.95 0H45.05C47.1585 0 49.1806 0.837586 50.6715 2.3285C52.1624 3.81941 53 5.84152 53 7.94999V34.45C53 36.5584 52.1624 38.5805 50.6715 40.0714C49.1806 41.5624 47.1585 42.3999 45.05 42.3999H14.3477L4.52383 52.2238C3.76594 52.9817 2.62613 53.2084 1.63589 52.7982C0.645652 52.388 0 51.4218 0 50.3499V7.94999C0 5.84152 0.837586 3.81941 2.3285 2.3285Z" fill="#FF6633"/>
</svg>
