<svg width="24" height="24" viewBox="0 0 24 24" fill="none" xmlns="http://www.w3.org/2000/svg">
<path d="M6.41406 13.0301V20.2489C6.41406 21.2614 7.23491 22.0822 8.2474 22.0822H15.5807C16.5932 22.0822 17.4141 21.2614 17.4141 20.2489V8.97656L7.43009 8.97656C6.76618 10.2177 6.41406 11.6092 6.41406 13.0301Z" fill="#FFF6DE"/>
<path d="M2.75 5.57812L22 17.4948" stroke="#FF6633" stroke-width="2" stroke-linecap="round" stroke-linejoin="round"/>
<path d="M9.16667 1.91406L9.12059 5.46621C9.12059 6.58185 8.09938 8.0841 7.43009 8.97656C6.76618 10.2177 6.41406 11.6092 6.41406 13.0301V20.2489C6.41406 21.2614 7.23491 22.0822 8.2474 22.0822H11.9141H12.1719H15.8385C16.851 22.0822 17.6719 21.2614 17.6719 20.2489V13.0301C17.6719 11.6092 17.3198 10.2177 16.6558 8.97656C15.9866 8.0841 14.9653 6.58185 14.9653 5.46621L14.9193 1.91406M9.16667 1.91406H8.25M9.16667 1.91406H12.0872M14.9193 1.91406H15.8359M14.9193 1.91406H11.9987" stroke="#1D1D1F" stroke-width="2" stroke-linecap="round" stroke-linejoin="round"/>
</svg>
