<svg width="22" height="21" viewBox="0 0 22 21" fill="none" xmlns="http://www.w3.org/2000/svg">
<path fill-rule="evenodd" clip-rule="evenodd" d="M4.8855 0.93728C5.43248 0.390298 6.17434 0.0830078 6.94789 0.0830078H18.1979C18.9714 0.0830078 19.7133 0.390298 20.2603 0.93728C20.8073 1.48426 21.1146 2.22613 21.1146 2.99967V17.9997C21.1146 18.7732 20.8073 19.5151 20.2603 20.0621C19.7133 20.609 18.9714 20.9163 18.1979 20.9163H6.94789C3.26601 20.9163 0.28125 17.9316 0.28125 14.2497V10.4997C0.28125 9.92438 0.74762 9.45801 1.32292 9.45801H4.03122V2.99967C4.03122 2.22613 4.33852 1.48426 4.8855 0.93728ZM4.03122 11.5413H2.36458V14.2497C2.36458 15.673 3.01332 16.9447 4.03122 17.7854V11.5413ZM6.94789 18.833H18.1979C18.4189 18.833 18.6309 18.7452 18.7871 18.5889C18.9434 18.4326 19.0312 18.2207 19.0312 17.9997V2.99967C19.0312 2.77866 18.9434 2.5667 18.7871 2.41042C18.6309 2.25414 18.4189 2.16634 18.1979 2.16634H6.94789C6.72688 2.16634 6.51492 2.25414 6.35864 2.41042C6.20236 2.5667 6.11456 2.77866 6.11456 2.99967V17.9997C6.11456 18.2207 6.20236 18.4326 6.35864 18.5889C6.51492 18.7452 6.72688 18.833 6.94789 18.833Z" fill="#686870"/>
<path fill-rule="evenodd" clip-rule="evenodd" d="M7.78125 11.4372C7.78125 10.8619 8.24762 10.3955 8.82292 10.3955H16.3229C16.8982 10.3955 17.3646 10.8619 17.3646 11.4372C17.3646 12.0125 16.8982 12.4788 16.3229 12.4788H8.82292C8.24762 12.4788 7.78125 12.0125 7.78125 11.4372Z" fill="#686870"/>
<path fill-rule="evenodd" clip-rule="evenodd" d="M7.78125 15.1872C7.78125 14.6119 8.24762 14.1455 8.82292 14.1455H16.3229C16.8982 14.1455 17.3646 14.6119 17.3646 15.1872C17.3646 15.7625 16.8982 16.2288 16.3229 16.2288H8.82292C8.24762 16.2288 7.78125 15.7625 7.78125 15.1872Z" fill="#686870"/>
<path fill-rule="evenodd" clip-rule="evenodd" d="M7.78125 7.68717C7.78125 7.11188 8.24762 6.64551 8.82292 6.64551H10.6979C11.2732 6.64551 11.7396 7.11188 11.7396 7.68717C11.7396 8.26247 11.2732 8.72884 10.6979 8.72884H8.82292C8.24762 8.72884 7.78125 8.26247 7.78125 7.68717Z" fill="#686870"/>
</svg>
