<svg width="56" height="56" viewBox="0 0 56 56" fill="none" xmlns="http://www.w3.org/2000/svg">
<path fill-rule="evenodd" clip-rule="evenodd" d="M7.17355 14.625C5.93077 14.625 5.09091 15.484 5.09091 16.3594V40.6406C5.09091 41.516 5.93077 42.375 7.17355 42.375H48.8264C50.0692 42.375 50.9091 41.516 50.9091 40.6406V16.3594C50.9091 15.484 50.0692 14.625 48.8264 14.625H7.17355ZM0 16.3594C0 12.7647 3.30428 10 7.17355 10H48.8264C52.6957 10 56 12.7647 56 16.3594V40.6406C56 44.2353 52.6957 47 48.8264 47H7.17355C3.30428 47 0 44.2353 0 40.6406V16.3594Z" fill="#FF6633"/>
<path fill-rule="evenodd" clip-rule="evenodd" d="M29.7558 20.1729C28.0099 19.8257 26.2003 20.0039 24.5558 20.6851C22.9115 21.3662 21.5057 22.5199 20.5168 23.9999C19.5278 25.4799 19 27.2202 19 29C19 31.3868 19.9482 33.6761 21.6361 35.3639C23.3239 37.0517 25.6131 38 28 38C29.7796 38 31.5198 37.4725 32.9999 36.4833C34.4802 35.4944 35.6338 34.0886 36.3148 32.4444C36.996 30.7997 37.1741 28.9896 36.8271 27.2439C36.4798 25.4986 35.6226 23.8946 34.3637 22.6359C33.1051 21.3772 31.5013 20.5202 29.7558 20.1729ZM26.2778 24.8426C25.4557 25.1832 24.7528 25.76 24.2584 26.5C23.764 27.2398 23.5 28.11 23.5 29C23.5 30.1934 23.9741 31.338 24.818 32.1819C25.662 33.0259 26.8067 33.5 28 33.5C28.8901 33.5 29.7602 33.2361 30.4998 32.7417C31.2397 32.2475 31.8168 31.5444 32.1573 30.7223C32.4979 29.9002 32.5871 28.9953 32.4137 28.1222C32.2399 27.2493 31.8109 26.4469 31.1818 25.8179C30.5527 25.1887 29.7508 24.7601 28.8779 24.5865C28.0049 24.4128 27.1 24.502 26.2778 24.8426Z" fill="#FF6633"/>
</svg>
