<svg width="20" height="20" viewBox="0 0 20 20" fill="none" xmlns="http://www.w3.org/2000/svg">
<path fill-rule="evenodd" clip-rule="evenodd" d="M5.75744 2.42435C6.88266 1.29913 8.40878 0.666992 10.0001 0.666992C11.5914 0.666992 13.1175 1.29913 14.2427 2.42435C15.3679 3.54957 16.0001 5.07569 16.0001 6.66699C16.0001 9.43632 16.5921 11.1433 17.128 12.1256C17.3973 12.6193 17.6579 12.9403 17.8354 13.1277C17.9244 13.2217 17.9933 13.2828 18.0328 13.3158C18.0522 13.3319 18.0645 13.3413 18.0688 13.3445C18.4256 13.5911 18.5832 14.0405 18.4572 14.4568C18.3295 14.8785 17.9407 15.167 17.5001 15.167H2.50008C2.05941 15.167 1.67068 14.8785 1.54299 14.4568C1.41693 14.0405 1.57456 13.5911 1.93131 13.3445C1.93508 13.3419 1.93888 13.3393 1.9427 13.3367L1.94057 13.3382L1.93666 13.3408L1.93131 13.3445C1.93564 13.3413 1.94799 13.3319 1.96732 13.3158C2.00686 13.2828 2.07571 13.2217 2.16475 13.1277C2.3423 12.9403 2.60289 12.6193 2.87218 12.1256C3.40801 11.1433 4.00008 9.43632 4.00008 6.66699C4.00008 5.07569 4.63222 3.54957 5.75744 2.42435ZM15.4184 13.167H4.58172C4.59715 13.1395 4.61257 13.1116 4.62797 13.0833C5.34215 11.774 6.00008 9.731 6.00008 6.66699C6.00008 5.60613 6.4215 4.58871 7.17165 3.83856C7.9218 3.08842 8.93921 2.66699 10.0001 2.66699C11.0609 2.66699 12.0784 3.08842 12.8285 3.83856C13.5787 4.58871 14.0001 5.60613 14.0001 6.66699C14.0001 9.731 14.658 11.774 15.3722 13.0833C15.3876 13.1116 15.403 13.1395 15.4184 13.167ZM18.0561 13.3358L18.0548 13.3349L17.5001 14.167C18.0548 13.3349 18.0561 13.3358 18.0561 13.3358Z" fill="#FF6633"/>
<path d="M4.58172 13.167H15.4184C15.403 13.1395 15.3876 13.1116 15.3722 13.0833C14.658 11.774 14.0001 9.731 14.0001 6.66699C14.0001 5.60613 13.5787 4.58871 12.8285 3.83856C12.0784 3.08842 11.0609 2.66699 10.0001 2.66699C8.93921 2.66699 7.9218 3.08842 7.17165 3.83856C6.4215 4.58871 6.00008 5.60613 6.00008 6.66699C6.00008 9.731 5.34215 11.774 4.62797 13.0833C4.61257 13.1116 4.59715 13.1395 4.58172 13.167Z" fill="#FF6633"/>
<path fill-rule="evenodd" clip-rule="evenodd" d="M8.06089 16.6352C8.53862 16.358 9.15054 16.5207 9.42767 16.9984C9.48627 17.0994 9.57038 17.1833 9.67159 17.2416C9.77279 17.2999 9.88754 17.3305 10.0043 17.3305C10.1211 17.3305 10.2359 17.2999 10.3371 17.2416C10.4383 17.1833 10.5224 17.0994 10.581 16.9984C10.8581 16.5207 11.47 16.358 11.9478 16.6352C12.4255 16.9123 12.5881 17.5242 12.311 18.0019C12.0766 18.406 11.7401 18.7415 11.3353 18.9746C10.9305 19.2078 10.4715 19.3305 10.0043 19.3305C9.53716 19.3305 9.07819 19.2078 8.67336 18.9746C8.26854 18.7415 7.93208 18.406 7.69767 18.0019C7.42054 17.5242 7.58317 16.9123 8.06089 16.6352Z" fill="#FF6633"/>
</svg>
