<svg width="40" height="56" viewBox="0 0 40 56" fill="none" xmlns="http://www.w3.org/2000/svg">
<path fill-rule="evenodd" clip-rule="evenodd" d="M7.5 5.09091C6.11929 5.09091 5 6.23055 5 7.63636V48.3636C5 49.7695 6.11929 50.9091 7.5 50.9091H32.5C33.8807 50.9091 35 49.7695 35 48.3636V7.63636C35 6.23055 33.8807 5.09091 32.5 5.09091H7.5ZM0 7.63636C0 3.41892 3.35786 0 7.5 0H32.5C36.6421 0 40 3.41892 40 7.63636V48.3636C40 52.5811 36.6421 56 32.5 56H7.5C3.35786 56 0 52.5811 0 48.3636V7.63636Z" fill="#FF6633"/>
<path fill-rule="evenodd" clip-rule="evenodd" d="M18 43C18 41.3431 19.1137 40 20.4876 40H20.5124C21.8863 40 23 41.3431 23 43C23 44.6569 21.8863 46 20.5124 46H20.4876C19.1137 46 18 44.6569 18 43Z" fill="#FF6633"/>
</svg>
