<svg width="24" height="24" viewBox="0 0 24 24" fill="none" xmlns="http://www.w3.org/2000/svg">
<path d="M3 11.9989C3.00343 10.1016 3.60738 8.25411 4.72529 6.72122C5.84319 5.18834 7.41766 4.04875 9.22302 3.46581C11.0284 2.88287 12.9719 2.8865 14.7751 3.47619C16.5782 4.06587 18.1484 5.21133 19.2606 6.74838C20.3728 8.28544 20.9698 10.1352 20.9662 12.0324C20.9625 13.9297 20.3583 15.7771 19.2402 17.3099C18.1221 18.8426 16.5475 19.982 14.7421 20.5647C12.9367 21.1474 10.9931 21.1436 9.19002 20.5536C9.82989 16.8383 12.1756 13.8092 15.275 12.5234C15.5816 12.8787 16.0033 13.115 16.4663 13.191C16.9294 13.267 17.4045 13.1779 17.8086 12.9393C18.2126 12.7006 18.52 12.3276 18.677 11.8853C18.8341 11.443 18.8307 10.9597 18.6676 10.5196C18.5045 10.0795 18.192 9.71077 17.7847 9.47771C17.3774 9.24464 16.9011 9.16208 16.4391 9.24446C15.9772 9.32684 15.5588 9.56892 15.2571 9.92841C14.9554 10.2879 14.7896 10.742 14.7887 11.2113C10.8334 12.4029 7.62819 15.1617 6.00245 18.711C5.48558 18.2491 5.02386 17.7289 4.62648 17.1608C4.71978 13.7078 6.42927 10.6845 8.98873 8.90507C9.29968 9.25493 9.72341 9.48472 10.1862 9.55448C10.649 9.62424 11.1217 9.52954 11.5219 9.28687C11.9221 9.0442 12.2247 8.6689 12.3769 8.22625C12.529 7.7836 12.5213 7.30161 12.3549 6.8641C12.1885 6.42658 11.874 6.06124 11.4662 5.8316C11.0583 5.60196 10.5829 5.52256 10.1226 5.60721C9.66224 5.69185 9.24614 5.93519 8.94664 6.2949C8.64714 6.6546 8.48319 7.10792 8.48331 7.57601C8.48331 7.63405 8.48331 7.69282 8.49212 7.74793C6.1075 8.58254 4.15117 10.2393 3.00588 12.3478C3 12.234 3 12.1157 3 11.9989Z" fill="#FFA100"/>
</svg>
