<svg width="24" height="24" viewBox="0 0 24 24" fill="none" xmlns="http://www.w3.org/2000/svg">
<path d="M16.3991 3.88665C14.7433 4.12166 13.4614 5.66528 13.4294 7.5454C15.7208 7.96736 17.4513 9.50564 17.4513 12.251C17.4513 14.9003 15.2507 17.0421 12.5 17.0421C9.76528 17.0475 7.54867 14.6439 7.54867 11.53C7.54867 7.23561 11.3623 3.673 16.1855 3.78516C15.0585 3.28309 13.8139 3 12.5 3C7.53264 3 3.5 7.0273 3.5 12C3.5 16.9727 7.53264 21 12.5 21C17.4674 21 21.5 16.9727 21.5 12C21.5 8.42671 19.4169 5.33947 16.3991 3.88665Z" fill="#E72E2E"/>
</svg>
