<svg width="24" height="24" viewBox="0 0 24 24" fill="none" xmlns="http://www.w3.org/2000/svg">
<path fill-rule="evenodd" clip-rule="evenodd" d="M1.875 4C2.35825 4 2.75 4.39175 2.75 4.875V9.25H7.125C7.60825 9.25 8 9.64175 8 10.125C8 10.6082 7.60825 11 7.125 11H1.875C1.39175 11 1 10.6082 1 10.125V4.875C1 4.39175 1.39175 4 1.875 4Z" fill="black"/>
<path fill-rule="evenodd" clip-rule="evenodd" d="M16 13.875C16 13.3918 16.3918 13 16.875 13H22.125C22.6082 13 23 13.3918 23 13.875V19.125C23 19.6082 22.6082 20 22.125 20C21.6418 20 21.25 19.6082 21.25 19.125V14.75H16.875C16.3918 14.75 16 14.3582 16 13.875Z" fill="black"/>
<path fill-rule="evenodd" clip-rule="evenodd" d="M9.45804 3.35449C10.9455 2.93196 12.5177 2.88636 14.028 3.22194C15.5383 3.55753 16.9374 4.26337 18.0948 5.27359C19.2522 6.28381 20.1301 7.5655 20.6467 8.99905C20.8155 9.46775 20.5656 9.98215 20.0883 10.148C19.611 10.3139 19.0872 10.0684 18.9183 9.59967C18.5051 8.45282 17.8028 7.42748 16.8769 6.6193C15.9509 5.81112 14.8317 5.24645 13.6234 4.97798C12.4152 4.70951 11.1574 4.74599 9.96745 5.08402C8.77746 5.42205 7.69406 6.0506 6.81834 6.91103C6.81157 6.91769 6.80469 6.92424 6.79771 6.93068L2.54438 10.8556C2.17544 11.1961 1.59532 11.1783 1.24865 10.816C0.90197 10.4537 0.920018 9.88399 1.28896 9.54354L5.53209 5.62802C6.62491 4.55773 7.97528 3.77568 9.45804 3.35449ZM22.7514 13.184C23.098 13.5463 23.08 14.116 22.711 14.4565L18.4679 18.372C17.3751 19.4423 16.0247 20.2243 14.542 20.6455C13.0545 21.068 11.4822 21.1136 9.97197 20.7781C8.46169 20.4425 7.06258 19.7366 5.90521 18.7264C4.74783 17.7162 3.86991 16.4345 3.35335 15.0009C3.18446 14.5323 3.43445 14.0178 3.91171 13.852C4.38897 13.6861 4.91277 13.9316 5.08166 14.4003C5.49491 15.5472 6.19725 16.5725 7.12315 17.3807C8.04905 18.1889 9.16833 18.7535 10.3766 19.022C11.5848 19.2905 12.8426 19.254 14.0326 18.916C15.2225 18.578 16.3059 17.9494 17.1817 17.089C17.1857 17.085 17.1898 17.081 17.194 17.0771C17.1967 17.0745 17.1995 17.0719 17.2023 17.0693L21.4556 13.1444C21.8246 12.8039 22.4047 12.8217 22.7514 13.184Z" fill="black"/>
</svg>
