<svg width="39" height="39" viewBox="0 0 39 39" fill="none" xmlns="http://www.w3.org/2000/svg">
<path fill-rule="evenodd" clip-rule="evenodd" d="M11.2993 8.07198C9.28916 9.27912 8.24154 10.8258 8.24215 12.3708C8.24277 13.9157 9.29161 15.4616 11.3027 16.6671C13.2965 17.8624 16.1064 18.629 19.256 18.6278C22.4056 18.6265 25.2149 17.8577 27.2078 16.6608C29.2179 15.4537 30.2655 13.907 30.2649 12.362C30.2643 10.8171 29.2154 9.27123 27.2044 8.06568C25.2105 6.87044 22.4006 6.10379 19.251 6.10504C16.1015 6.10629 13.2922 6.87516 11.2993 8.07198ZM10.41 6.59121C12.714 5.20759 15.8415 4.37912 19.2504 4.37777C22.6592 4.37642 25.7874 5.20241 28.0925 6.58421C30.3803 7.95569 31.9912 9.9713 31.9922 12.3614C31.9931 14.7514 30.3838 16.7683 28.097 18.1416C25.7931 19.5252 22.6655 20.3537 19.2567 20.355C15.8479 20.3564 12.7196 19.5304 10.4146 18.1486C8.12671 16.7771 6.51583 14.7615 6.51488 12.3714C6.51394 9.98139 8.12322 7.96451 10.41 6.59121Z" fill="#86868B"/>
<path d="M26.3803 12.3655C26.3811 14.333 23.1918 15.9292 19.2567 15.9308C15.3217 15.9323 12.1311 14.3386 12.1303 12.3711C12.1295 10.4036 15.3189 8.80733 19.2539 8.80577C23.1889 8.80421 26.3795 10.3979 26.3803 12.3655Z" fill="#FF6633"/>
<path fill-rule="evenodd" clip-rule="evenodd" d="M6.51563 12.3712C6.51563 12.3711 6.51562 12.3711 7.37926 12.3708C8.2429 12.3704 8.2429 12.3704 8.2429 12.3705L8.24854 26.6204C8.24915 28.1654 9.29799 29.7112 11.309 30.9168C13.3029 32.112 16.1128 32.8787 19.2624 32.8774C22.412 32.8762 25.2212 32.1073 27.2142 30.9105C29.2243 29.7033 30.2719 28.1567 30.2713 26.6117L30.2656 12.3617L31.9929 12.361L31.9985 26.611C31.9995 29.0011 30.3902 31.0179 28.1034 32.3912C25.7995 33.7749 22.6719 34.6033 19.2631 34.6047C15.8543 34.606 12.726 33.78 10.421 32.3982C8.13309 31.0268 6.52221 29.0112 6.52127 26.6211L6.51563 12.3712Z" fill="#86868B"/>
</svg>
