<svg width="20" height="37" viewBox="0 0 20 37" fill="none" xmlns="http://www.w3.org/2000/svg">
<path fill-rule="evenodd" clip-rule="evenodd" d="M0 19.2109C0 18.6587 0.447715 18.2109 1 18.2109H19C19.5523 18.2109 20 18.6587 20 19.2109C20 19.7632 19.5523 20.2109 19 20.2109H1C0.447715 20.2109 0 19.7632 0 19.2109Z" fill="white"/>
<path fill-rule="evenodd" clip-rule="evenodd" d="M6 22.2109C6.55228 22.2109 7 22.6587 7 23.2109C7 24.0066 7.31607 24.7696 7.87868 25.3323C8.44129 25.8949 9.20435 26.2109 10 26.2109C10.7956 26.2109 11.5587 25.8949 12.1213 25.3323C12.6839 24.7696 13 24.0066 13 23.2109C13 22.6587 13.4477 22.2109 14 22.2109C14.5523 22.2109 15 22.6587 15 23.2109C15 24.537 14.4732 25.8088 13.5355 26.7465C12.5979 27.6842 11.3261 28.2109 10 28.2109C8.67392 28.2109 7.40215 27.6842 6.46447 26.7465C5.52678 25.8088 5 24.537 5 23.2109C5 22.6587 5.44772 22.2109 6 22.2109Z" fill="white"/>
<path fill-rule="evenodd" clip-rule="evenodd" d="M11.5851 14.2109H8.55963L9.19567 14.847C9.3107 14.9623 9.44734 15.0538 9.59778 15.1162C9.74822 15.1786 9.9095 15.2108 10.0724 15.2108C10.2352 15.2108 10.3965 15.1786 10.547 15.1162C10.6974 15.0538 10.834 14.9623 10.9491 14.847L11.5851 14.2109ZM13.7064 14.2109L12.0111 15.9063L12.0107 15.9067C11.899 16.0186 11.7782 16.1203 11.6496 16.2109H15.5L18 19.5443V33.2109C18 33.4762 17.8946 33.7305 17.7071 33.918C17.5196 34.1056 17.2652 34.2109 17 34.2109H3C2.73478 34.2109 2.48043 34.1056 2.29289 33.918C2.10536 33.7305 2 33.4762 2 33.2109V19.5443L4.5 16.2109H8.49519C8.36668 16.1204 8.24591 16.0187 8.13433 15.907L8.13367 15.9063L6.43831 14.2109H4C3.68524 14.2109 3.38885 14.3591 3.2 14.6109L0.2 18.6109C0.0701779 18.784 0 18.9946 0 19.2109V33.2109C0 34.0066 0.31607 34.7696 0.87868 35.3323C1.44129 35.8949 2.20435 36.2109 3 36.2109H17C17.7957 36.2109 18.5587 35.8949 19.1213 35.3323C19.6839 34.7696 20 34.0066 20 33.2109V19.2109C20 18.9946 19.9298 18.784 19.8 18.6109L16.8 14.6109C16.6111 14.3591 16.3148 14.2109 16 14.2109H13.7064Z" fill="white"/>
<path fill-rule="evenodd" clip-rule="evenodd" d="M10.0567 0C10.3852 0 10.7001 0.130461 10.9323 0.362683C11.1646 0.594904 11.295 0.909863 11.295 1.23827V10.9811L15.0751 7.19855C15.1902 7.08342 15.3269 6.99209 15.4773 6.92978C15.6277 6.86748 15.789 6.83541 15.9518 6.83541C16.1146 6.83541 16.2758 6.86748 16.4262 6.92978C16.5767 6.99209 16.7133 7.08342 16.8285 7.19855C16.9436 7.31368 17.0349 7.45036 17.0972 7.60078C17.1595 7.7512 17.1916 7.91243 17.1916 8.07525C17.1916 8.23806 17.1595 8.39929 17.0972 8.54971C17.0349 8.70014 16.9436 8.83681 16.8285 8.95194L10.9334 14.847C10.8184 14.9623 10.6818 15.0538 10.5313 15.1162C10.3809 15.1786 10.2196 15.2108 10.0567 15.2108C9.89387 15.2108 9.73259 15.1786 9.58216 15.1162C9.43172 15.0538 9.29507 14.9623 9.18005 14.847L3.28502 8.95194C3.16989 8.83681 3.07856 8.70014 3.01625 8.54971C2.95394 8.39929 2.92188 8.23806 2.92188 8.07525C2.92188 7.91243 2.95394 7.7512 3.01625 7.60078C3.07856 7.45036 3.16989 7.31368 3.28502 7.19855C3.51753 6.96603 3.83289 6.83541 4.16171 6.83541C4.32453 6.83541 4.48575 6.86748 4.63618 6.92978C4.7866 6.99209 4.92328 7.08342 5.03841 7.19855L8.81847 10.9811V1.23827C8.81847 0.909863 8.94893 0.594904 9.18116 0.362683C9.41338 0.130461 9.72834 0 10.0567 0Z" fill="white"/>
</svg>
