<svg width="40" height="40" viewBox="0 0 40 40" fill="none" xmlns="http://www.w3.org/2000/svg">
<rect x="0.5" y="0.5" width="39" height="39" rx="11.5" stroke="#D2D2D7"/>
<path fill-rule="evenodd" clip-rule="evenodd" d="M14.3346 11.1663C14.492 10.9565 14.739 10.833 15.0013 10.833H25.0013C25.2636 10.833 25.5106 10.9565 25.668 11.1663L28.168 14.4997C28.2762 14.6439 28.3346 14.8194 28.3346 14.9997V26.6663C28.3346 27.3294 28.0712 27.9653 27.6024 28.4341C27.1336 28.9029 26.4977 29.1663 25.8346 29.1663H14.168C13.5049 29.1663 12.869 28.9029 12.4002 28.4341C11.9314 27.9653 11.668 27.3294 11.668 26.6663V14.9997C11.668 14.8194 11.7265 14.6439 11.8346 14.4997L14.3346 11.1663ZM15.418 12.4997L13.3346 15.2775V26.6663C13.3346 26.8874 13.4224 27.0993 13.5787 27.2556C13.735 27.4119 13.947 27.4997 14.168 27.4997H25.8346C26.0556 27.4997 26.2676 27.4119 26.4239 27.2556C26.5802 27.0993 26.668 26.8874 26.668 26.6663V15.2775L24.5846 12.4997H15.418Z" fill="#686870"/>
<path fill-rule="evenodd" clip-rule="evenodd" d="M11.668 15.0003C11.668 14.5401 12.0411 14.167 12.5013 14.167H27.5013C27.9615 14.167 28.3346 14.5401 28.3346 15.0003C28.3346 15.4606 27.9615 15.8337 27.5013 15.8337H12.5013C12.0411 15.8337 11.668 15.4606 11.668 15.0003Z" fill="#686870"/>
<path fill-rule="evenodd" clip-rule="evenodd" d="M16.6654 17.5C17.1256 17.5 17.4987 17.8731 17.4987 18.3333C17.4987 18.9964 17.7621 19.6323 18.2309 20.1011C18.6998 20.5699 19.3357 20.8333 19.9987 20.8333C20.6617 20.8333 21.2976 20.5699 21.7665 20.1011C22.2353 19.6323 22.4987 18.9964 22.4987 18.3333C22.4987 17.8731 22.8718 17.5 23.332 17.5C23.7923 17.5 24.1654 17.8731 24.1654 18.3333C24.1654 19.4384 23.7264 20.4982 22.945 21.2796C22.1636 22.061 21.1038 22.5 19.9987 22.5C18.8936 22.5 17.8338 22.061 17.0524 21.2796C16.271 20.4982 15.832 19.4384 15.832 18.3333C15.832 17.8731 16.2051 17.5 16.6654 17.5Z" fill="#686870"/>
</svg>
