<svg width="41" height="42" viewBox="0 0 41 42" fill="none" xmlns="http://www.w3.org/2000/svg">
<path d="M17.4317 8.40739L17.4323 10.0235C17.4325 10.5208 16.119 11.433 13.9358 11.4339C11.7526 11.4347 10.4383 10.5236 10.4381 10.0263L10.4375 8.41016C11.3676 8.88634 12.5603 9.17595 13.9349 9.1754C15.3095 9.19558 16.5222 8.90502 17.4317 8.40739Z" fill="#FF6633"/>
<path d="M21.7373 12.343L19.918 12.3438L19.9207 19.2434L21.74 19.2427L21.7373 12.343Z" fill="#86868B"/>
<path d="M13.9643 35.5093C9.59797 35.5111 6.16071 33.4819 6.15969 30.9126L6.15234 12.3477L7.97165 12.3469L7.979 30.9119C7.9795 32.1965 10.5271 33.6459 13.9636 33.6445L13.9643 35.5093Z" fill="#86868B"/>
<path d="M13.9584 16.9438C9.57186 16.9455 6.15482 14.9371 6.1538 12.3471C6.15321 10.876 7.26448 9.52876 9.18451 8.67849L9.91291 10.3979C8.70026 10.9371 7.97283 11.6626 7.97311 12.3671C7.97361 13.6517 10.5212 15.1011 13.9577 15.0997C17.3941 15.0984 19.9406 13.647 19.9401 12.3624C19.9398 11.6786 19.2118 10.933 17.9987 10.3947L18.7257 8.67471C20.6464 9.52346 21.7588 10.8698 21.7594 12.3409C21.7402 14.9309 18.3247 16.9421 13.9584 16.9438Z" fill="#86868B"/>
<path d="M19.2493 5.91767L19.2509 10.0409C19.251 10.2067 19.2309 10.3724 19.1905 10.5382C18.8273 12.1545 16.685 13.2949 13.956 13.296C11.4292 13.297 9.42762 12.324 8.82063 10.9153C8.69922 10.6253 8.63847 10.3352 8.63834 10.0244L8.63672 5.92188L10.456 5.92115L10.4577 10.0444C10.4578 10.5417 11.7924 11.4528 13.9553 11.452C16.1183 11.4511 17.4521 10.5389 17.4519 10.0416L17.4502 5.91839L19.2493 5.91767Z" fill="#86868B"/>
<path d="M18.7819 4.53382C17.9729 3.39455 16.1533 2.64936 13.9297 2.65024C12.0093 2.651 10.3924 3.21107 9.46286 4.1024C8.91728 4.62061 8.61431 5.24232 8.61458 5.92608C8.61499 6.96207 9.30262 7.83203 10.4349 8.43245C11.3649 8.90864 12.5577 9.19825 13.9323 9.1977C15.2866 9.19717 16.4994 8.90661 17.4291 8.42968C18.5609 7.84908 19.2478 6.95786 19.2474 5.92187C19.2472 5.40387 19.0853 4.9481 18.7819 4.53382ZM13.9518 7.33291C11.7888 7.33377 10.4543 6.42262 10.4541 5.92535C10.4539 5.42807 11.7877 4.51587 13.9506 4.51501C16.1136 4.51416 17.4481 5.4253 17.4483 5.92258C17.4283 6.41986 16.1147 7.33205 13.9518 7.33291Z" fill="#86868B"/>
<path d="M17.4323 5.9218C17.4325 6.41908 16.1189 7.33127 13.9357 7.33214C11.7526 7.333 10.4383 6.42185 10.4381 5.92457C10.4379 5.4273 11.7717 4.5151 13.9346 4.51424C16.0975 4.51338 17.4321 5.42453 17.4323 5.9218Z" fill="#FF6633"/>
<path d="M22.7133 18.3114C15.6787 18.3142 10.1614 21.4451 10.163 25.444C10.1646 29.443 15.6843 32.5695 22.719 32.5667C29.7536 32.5639 35.2709 29.433 35.2693 25.4341C35.2678 21.4352 29.7682 18.3086 22.7133 18.3114ZM32.3392 27.7351C30.561 29.4763 26.8824 30.7002 22.7182 30.7019C18.5541 30.7035 14.8745 29.4825 13.095 27.722C12.3872 27.0386 11.9826 26.2514 11.9823 25.4433C11.9812 22.6047 16.8923 20.1785 22.7141 20.1762C28.5156 20.1739 33.4489 22.5755 33.45 25.4348C33.4504 26.2429 33.0464 27.0304 32.3392 27.7351Z" fill="#86868B"/>
<path d="M22.7172 40.1281C17.6434 40.1301 14.1859 38.2045 13.1941 34.869L11.2307 28.2809L12.9689 27.7415L14.9323 34.3296C15.661 36.8364 18.4916 38.265 22.6962 38.2633L22.697 40.1281L22.7172 40.1281Z" fill="#86868B"/>
<path d="M22.7237 40.1299L22.7229 38.2651C26.9275 38.2635 29.757 36.8327 30.4837 34.3253L32.4419 27.7149L34.1806 28.2529L32.2224 34.8426C31.2534 38.1996 27.7975 40.1279 22.7237 40.1299Z" fill="#86868B"/>
<path d="M32.3392 27.7357C30.5611 29.4769 26.8825 30.7008 22.7183 30.7025C18.5542 30.7041 14.8746 29.4831 13.0951 27.7226C14.3881 25.9609 17.9856 24.3848 22.7158 24.3829C27.4662 24.4017 31.065 25.9543 32.3392 27.7357Z" fill="#FF6633"/>
</svg>
