<svg width="34" height="41" viewBox="0 0 34 41" fill="none" xmlns="http://www.w3.org/2000/svg">
<path d="M13.4007 6.95703V8.69143C13.4007 9.22509 11.9553 10.2035 9.55384 10.2035C7.15236 10.2035 5.70703 9.22509 5.70703 8.69143V6.95703C6.72988 7.46846 8.0418 7.77976 9.55384 7.77976C11.0659 7.802 12.4 7.49069 13.4007 6.95703Z" fill="#9E9E9E"/>
<path d="M18.1301 11.1797H16.1289V18.5842H18.1301V11.1797Z" fill="#86868B"/>
<path d="M9.57134 36.0394C4.76839 36.0394 0.988281 33.8603 0.988281 31.1031V11.1797H2.98951V31.1031C2.98951 32.4817 5.79124 34.0382 9.57134 34.0382V36.0394Z" fill="#86868B"/>
<path d="M9.57134 16.1143C4.74615 16.1143 0.988281 13.9574 0.988281 11.1779C0.988281 9.59919 2.21126 8.15386 4.32367 7.24219L5.12416 9.08777C3.79001 9.6659 2.98951 10.4442 2.98951 11.2002C2.98951 12.5788 5.79124 14.1353 9.57134 14.1353C13.3514 14.1353 16.1532 12.5788 16.1532 11.2002C16.1532 10.4664 15.3527 9.6659 14.0185 9.08777L14.819 7.24219C16.9314 8.15386 18.1544 9.59919 18.1544 11.1779C18.1322 13.9574 14.3743 16.1143 9.57134 16.1143Z" fill="#86868B"/>
<path d="M15.4004 4.28516V8.7101C15.4004 8.88799 15.3782 9.06588 15.3337 9.24376C14.9335 10.9782 12.5765 12.2011 9.57461 12.2011C6.79512 12.2011 4.59376 11.1561 3.92669 9.64401C3.79327 9.33271 3.72656 9.0214 3.72656 8.68787V4.28516H5.72779V8.7101C5.72779 9.24376 7.19536 10.2221 9.57461 10.2221C11.9538 10.2221 13.4214 9.24376 13.4214 8.7101V4.28516H15.4004Z" fill="#86868B"/>
<path d="M14.8839 2.79691C13.9944 1.57393 11.9932 0.773438 9.54726 0.773438C7.43485 0.773438 5.65598 1.37381 4.63313 2.32995C4.03276 2.88585 3.69922 3.55293 3.69922 4.28671C3.69922 5.39851 4.45524 6.33241 5.70045 6.97726C6.7233 7.48868 8.03522 7.79998 9.54726 7.79998C11.0371 7.79998 12.3712 7.48868 13.3941 6.97726C14.6393 6.35465 15.3953 5.39851 15.3953 4.28671C15.3953 3.73081 15.2174 3.24162 14.8839 2.79691ZM9.5695 5.79875C7.19026 5.79875 5.72269 4.82037 5.72269 4.28671C5.72269 3.75305 7.19026 2.77467 9.5695 2.77467C11.9487 2.77467 13.4163 3.75305 13.4163 4.28671C13.3941 4.82037 11.9487 5.79875 9.5695 5.79875Z" fill="#86868B"/>
<path d="M13.4007 4.28548C13.4007 4.81914 11.9553 5.79752 9.55384 5.79752C7.15236 5.79752 5.70703 4.81914 5.70703 4.28548C5.70703 3.75182 7.1746 2.77344 9.55384 2.77344C11.9331 2.77344 13.4007 3.75182 13.4007 4.28548Z" fill="#9E9E9E"/>
<path d="M19.203 17.5859C11.4649 17.5859 5.39453 20.9436 5.39453 25.2351C5.39453 29.5266 11.4649 32.8842 19.203 32.8842C26.9411 32.8842 33.0115 29.5266 33.0115 25.2351C33.0115 20.9436 26.9634 17.5859 19.203 17.5859ZM29.7873 27.7033C27.8306 29.5711 23.7836 30.883 19.203 30.883C14.6224 30.883 10.5755 29.5711 8.61874 27.681C7.84048 26.9473 7.39576 26.1023 7.39576 25.2351C7.39576 22.1888 12.7991 19.5872 19.203 19.5872C25.5847 19.5872 31.0103 22.1665 31.0103 25.2351C31.0103 26.1023 30.5656 26.9473 29.7873 27.7033Z" fill="#86868B"/>
<path d="M19.1964 41.0002C13.6152 41.0002 9.81285 38.9323 8.72329 35.3523L6.56641 28.2813L8.47869 27.7031L10.6356 34.7741C11.4361 37.4647 14.5491 38.999 19.1742 38.999V41.0002H19.1964Z" fill="#86868B"/>
<path d="M19.2031 40.999V38.9978C23.8282 38.9978 26.9412 37.4635 27.7417 34.7729L29.8986 27.6797L31.8109 28.2578L29.654 35.3288C28.5867 38.9311 24.7843 40.999 19.2031 40.999Z" fill="#86868B"/>
<path d="M29.7858 27.7038C27.829 29.5716 23.7821 30.8835 19.2015 30.8835C14.6209 30.8835 10.5739 29.5716 8.61719 27.6815C10.0403 25.7915 13.9983 24.1016 19.2015 24.1016C24.4269 24.1238 28.3849 25.7915 29.7858 27.7038Z" fill="#9E9E9E"/>
</svg>
