<svg width="24" height="20" viewBox="0 0 24 20" fill="none" xmlns="http://www.w3.org/2000/svg">
<path d="M12.2627 17.7636C12.2653 18.0888 12.1474 18.3883 11.9515 18.6111C11.7455 18.8433 11.4613 18.989 11.1451 18.9994C10.8286 19.0101 10.5363 18.8835 10.3206 18.669C10.1086 18.4561 9.97333 18.165 9.95677 17.8403C9.91153 17.0688 9.88801 16.3226 9.88614 15.6021C9.86827 15.3384 9.84692 15.0815 9.82208 14.8313C5.88146 14.3386 3.31964 11.5116 2.29022 6.58441L2 5.19533L3.33444 5.09402C6.7396 4.8355 9.1805 6.20497 10.6403 9.0603C12.0824 3.76248 15.5868 1 21.1089 1L22.1096 1L22.2511 2.05371C22.3083 2.47922 22.3518 3.17671 22.3221 4.06085C22.2727 5.53254 22.0249 7.00872 21.5098 8.4033C20.1149 12.1798 17.0782 14.5715 12.1941 14.876C12.1905 15.0956 12.1892 15.3184 12.1902 15.5446C12.2383 16.2505 12.2625 16.9904 12.2627 17.7636Z" stroke="#55B20B" stroke-width="2"/>
</svg>
