<svg width="24" height="24" viewBox="0 0 24 24" fill="none" xmlns="http://www.w3.org/2000/svg">
<g clip-path="url(#clip0_1348_218610)">
<path fill-rule="evenodd" clip-rule="evenodd" d="M12 8C9.79086 8 8 9.79086 8 12C8 14.2091 9.79086 16 12 16C14.2091 16 16 14.2091 16 12C16 9.79086 14.2091 8 12 8ZM6 12C6 8.68629 8.68629 6 12 6C15.3137 6 18 8.68629 18 12C18 15.3137 15.3137 18 12 18C8.68629 18 6 15.3137 6 12Z" fill="black"/>
<path fill-rule="evenodd" clip-rule="evenodd" d="M12 0C12.5523 0 13 0.447715 13 1V3C13 3.55228 12.5523 4 12 4C11.4477 4 11 3.55228 11 3V1C11 0.447715 11.4477 0 12 0Z" fill="black"/>
<path fill-rule="evenodd" clip-rule="evenodd" d="M12 20C12.5523 20 13 20.4477 13 21V23C13 23.5523 12.5523 24 12 24C11.4477 24 11 23.5523 11 23V21C11 20.4477 11.4477 20 12 20Z" fill="black"/>
<path fill-rule="evenodd" clip-rule="evenodd" d="M3.51164 3.51262C3.90217 3.1221 4.53533 3.1221 4.92586 3.51262L6.34586 4.93262C6.73638 5.32314 6.73638 5.95631 6.34586 6.34683C5.95533 6.73736 5.32217 6.73736 4.93164 6.34683L3.51164 4.92683C3.12112 4.53631 3.12112 3.90314 3.51164 3.51262Z" fill="black"/>
<path fill-rule="evenodd" clip-rule="evenodd" d="M17.6523 17.6532C18.0428 17.2627 18.676 17.2627 19.0665 17.6532L20.4865 19.0732C20.877 19.4638 20.877 20.0969 20.4865 20.4875C20.096 20.878 19.4628 20.878 19.0723 20.4875L17.6523 19.0675C17.2617 18.6769 17.2617 18.0438 17.6523 17.6532Z" fill="black"/>
<path fill-rule="evenodd" clip-rule="evenodd" d="M0 12C0 11.4477 0.447715 11 1 11H3C3.55228 11 4 11.4477 4 12C4 12.5523 3.55228 13 3 13H1C0.447715 13 0 12.5523 0 12Z" fill="black"/>
<path fill-rule="evenodd" clip-rule="evenodd" d="M20 12C20 11.4477 20.4477 11 21 11H23C23.5523 11 24 11.4477 24 12C24 12.5523 23.5523 13 23 13H21C20.4477 13 20 12.5523 20 12Z" fill="black"/>
<path fill-rule="evenodd" clip-rule="evenodd" d="M6.34586 17.6532C6.73638 18.0438 6.73638 18.6769 6.34586 19.0675L4.92586 20.4875C4.53533 20.878 3.90217 20.878 3.51164 20.4875C3.12112 20.0969 3.12112 19.4638 3.51164 19.0732L4.93164 17.6532C5.32217 17.2627 5.95533 17.2627 6.34586 17.6532Z" fill="black"/>
<path fill-rule="evenodd" clip-rule="evenodd" d="M20.4865 3.51262C20.877 3.90314 20.877 4.53631 20.4865 4.92683L19.0665 6.34683C18.676 6.73736 18.0428 6.73736 17.6523 6.34683C17.2617 5.95631 17.2617 5.32314 17.6523 4.93262L19.0723 3.51262C19.4628 3.1221 20.096 3.1221 20.4865 3.51262Z" fill="black"/>
</g>
<defs>
<clipPath id="clip0_1348_218610">
<rect width="24" height="24" fill="white"/>
</clipPath>
</defs>
</svg>
