<svg width="41" height="42" viewBox="0 0 41 42" fill="none" xmlns="http://www.w3.org/2000/svg">
<path fill-rule="evenodd" clip-rule="evenodd" d="M7.11771 18.296C7.57354 18.1555 8.05691 18.4112 8.19737 18.867L9.90225 24.4001C10.2391 25.4934 11.0954 26.349 12.189 26.685L23.6714 30.2131C24.5764 30.4912 25.5558 30.3856 26.3808 29.9212L34.2636 25.483C34.6793 25.249 35.2059 25.3962 35.4399 25.8118C35.6739 26.2274 35.5267 26.7541 35.111 26.9881L27.2282 31.4263C25.9908 32.123 24.5216 32.2813 23.1641 31.8642L11.6817 28.3361C10.0413 27.8321 8.75687 26.5487 8.25156 24.9087L6.54668 19.3756C6.40622 18.9198 6.66189 18.4364 7.11771 18.296Z" fill="#86868B"/>
<path d="M36.4157 28.1109C34.2836 25.6719 25.5587 22.9595 18.5171 21.5541C9.61017 19.7764 0.704631 21.5612 4.85829 15.0283C8.85088 8.74872 32.9257 7.17692 37.6186 26.8128C38.001 28.4129 36.8775 28.6392 36.4157 28.1109Z" fill="#FF6633"/>
<path fill-rule="evenodd" clip-rule="evenodd" d="M20.7215 10.5959C20.8374 11.0586 20.5562 11.5276 20.0936 11.6435C18.8421 11.9569 17.623 12.8705 16.535 14.2243C15.4538 15.5697 14.5554 17.2857 13.9318 19.0716C13.3076 20.859 12.9741 22.6715 12.9872 24.1979C13.0005 25.7611 13.3726 26.8478 13.9545 27.4013C14.3001 27.73 14.3138 28.2767 13.9851 28.6223C13.6563 28.9679 13.1097 28.9816 12.7641 28.6528C11.6735 27.6155 11.2747 25.9419 11.2599 24.2126C11.2449 22.4466 11.6263 20.4345 12.3011 18.5022C12.9764 16.5683 13.9613 14.6695 15.1887 13.1423C16.4094 11.6232 17.9245 10.4061 19.6739 9.96797C20.1366 9.8521 20.6056 10.1332 20.7215 10.5959ZM27.8611 13.0238C27.9461 13.4931 27.6345 13.9425 27.1652 14.0275C26.21 14.2006 25.1077 14.8321 24.0098 15.8731C22.923 16.9037 21.8989 18.2814 21.0939 19.8348C19.4663 22.9757 18.8325 26.6257 20.0885 29.4554C20.282 29.8913 20.0854 30.4016 19.6495 30.5951C19.2135 30.7886 18.7032 30.5921 18.5097 30.1561C16.9538 26.6509 17.8113 22.4153 19.5603 19.0401C20.4437 17.3355 21.5793 15.7975 22.8213 14.6198C24.0522 13.4526 25.4477 12.5833 26.8573 12.3279C27.3266 12.2429 27.776 12.5544 27.8611 13.0238Z" fill="#86868B"/>
</svg>
