<svg width="56" height="52" viewBox="0 0 56 52" fill="none" xmlns="http://www.w3.org/2000/svg">
<path fill-rule="evenodd" clip-rule="evenodd" d="M17.8364 7.38781C17.4076 7.01976 16.8585 6.81928 16.2914 6.82486L16.2677 6.82497H9.15319C8.8291 6.8254 8.50878 6.89312 8.21262 7.02367C7.9162 7.15434 7.65065 7.34503 7.4327 7.58331C7.21476 7.82158 7.04919 8.10223 6.94624 8.40729C6.84498 8.70733 6.80643 9.0247 6.83279 9.33991C7.57384 16.2716 9.93883 22.9325 13.737 28.7839L13.7484 28.8017C17.1998 34.2224 21.805 38.8186 27.2373 42.2637L27.256 42.2757C33.0925 46.0531 39.7347 48.4135 46.6502 49.1674C46.9683 49.1935 47.2884 49.1544 47.5906 49.0524C47.8986 48.9484 48.1812 48.7815 48.4202 48.5626C48.6593 48.3437 48.8496 48.0777 48.9793 47.7818C49.1089 47.4859 49.1751 47.1663 49.1738 46.8437L49.1738 46.8339V39.7321C49.1738 39.7121 49.174 39.6921 49.1745 39.6722C49.1887 39.1041 48.9932 38.55 48.6241 38.1153C48.2568 37.6827 47.7429 37.3982 47.1787 37.3166C44.7259 36.9928 42.3175 36.3935 39.9993 35.5302L39.9938 35.5282C39.576 35.3714 39.1216 35.3374 38.6847 35.4304C38.2498 35.523 37.851 35.7374 37.5349 36.0478C37.5336 36.0491 37.5322 36.0504 37.5309 36.0518L34.5281 39.0487C33.7606 39.8146 32.5764 39.9744 31.6333 39.4393C25.3178 35.8552 20.088 30.6361 16.4962 24.3318C15.9578 23.3868 16.1183 22.1984 16.8881 21.4301L19.8949 18.4293C20.2058 18.114 20.4197 17.7171 20.5119 17.2856C20.6045 16.8523 20.5707 16.4015 20.4144 15.9866L20.4124 15.9811C19.5471 13.6669 18.9464 11.2625 18.6218 8.81361C18.5412 8.2604 18.2628 7.75379 17.8364 7.38781ZM16.2571 2.00023C17.9876 1.98638 19.6653 2.59931 20.9788 3.72668C22.2957 4.857 23.1568 6.42752 23.4002 8.14601L23.4032 8.16824C23.6795 10.2594 24.192 12.3128 24.9307 14.2891C25.4117 15.5679 25.5156 16.9577 25.2301 18.2938C24.9444 19.631 24.2806 20.8578 23.3182 21.8291L23.3087 21.8387L21.6348 23.5093C24.4125 27.8479 28.1043 31.5315 32.453 34.3032L34.1418 32.6177C35.1149 31.6573 36.343 30.996 37.6803 30.7113C39.0166 30.4269 40.4066 30.5305 41.6859 31.0099C43.6668 31.7473 45.725 32.2589 47.8212 32.5348L47.8427 32.5378C49.5796 32.7823 51.1669 33.6555 52.3021 34.9928C53.4304 36.3218 54.0338 38.0168 53.9985 39.7591V46.8296C54.0018 47.8237 53.7974 48.8073 53.3985 49.7179C52.9989 50.6301 52.4129 51.4486 51.6784 52.1211C50.9439 52.7936 50.0771 53.3053 49.1335 53.6238C48.19 53.9422 47.1904 54.0605 46.1986 53.971C46.1908 53.9703 46.183 53.9696 46.1753 53.9688C46.1686 53.9681 46.1619 53.9674 46.1552 53.9667C38.4857 53.135 31.1181 50.5203 24.6439 46.3322C18.6211 42.5107 13.5138 37.4136 9.68434 31.402C5.47254 24.9103 2.85118 17.5197 2.03279 9.82847L2.02908 9.79077C1.93954 8.8019 2.05731 7.80532 2.3748 6.86455C2.69228 5.92378 3.20245 5.05963 3.87256 4.327C4.54265 3.59439 5.35796 3.00935 6.26643 2.60887C7.17489 2.20839 8.15675 2.00116 9.14956 2.00023L16.2571 2.00023Z" fill="#FF6633"/>
</svg>
