<svg width="24" height="24" viewBox="0 0 24 24" fill="none" xmlns="http://www.w3.org/2000/svg">
<path d="M4.46447 15.4645C5.40215 14.5268 6.67392 14 8 14H16C17.3261 14 18.5978 14.5268 19.5355 15.4645C20.4732 16.4021 21 17.6739 21 19V21C21 21.5523 20.5523 22 20 22H4C3.44772 22 3 21.5523 3 21V19C3 17.6739 3.52678 16.4021 4.46447 15.4645Z" fill="#FF6633"/>
<path fill-rule="evenodd" clip-rule="evenodd" d="M12 4C10.3431 4 9 5.34315 9 7C9 8.65686 10.3431 10 12 10C13.6569 10 15 8.65686 15 7C15 5.34315 13.6569 4 12 4ZM7 7C7 4.23858 9.23858 2 12 2C14.7614 2 17 4.23858 17 7C17 9.76142 14.7614 12 12 12C9.23858 12 7 9.76142 7 7Z" fill="#FF6633"/>
<path d="M9 7C9 5.34315 10.3431 4 12 4C13.6569 4 15 5.34315 15 7C15 8.65686 13.6569 10 12 10C10.3431 10 9 8.65686 9 7Z" fill="#FF6633"/>
</svg>
