<svg width="30" height="18" viewBox="0 0 30 18" fill="none" xmlns="http://www.w3.org/2000/svg">
<rect x="0.875" width="28.513" height="17.9783" fill="white"/>
<rect x="1.34375" y="15.0625" width="27.5638" height="2.45401" fill="#F7B600"/>
<rect x="1.34375" y="0.480469" width="27.5638" height="2.45401" fill="#1A1F71"/>
<path fill-rule="evenodd" clip-rule="evenodd" d="M19.6632 10.1708C19.6632 9.10422 18.7741 8.63898 18.0663 8.26859C17.594 8.02144 17.2024 7.81653 17.2095 7.50338C17.2095 7.25443 17.4424 7.00547 17.9618 6.93434C18.5577 6.87909 19.1576 6.98348 19.6991 7.23664L20.0035 5.81403C19.4777 5.61354 18.9191 5.51106 18.3558 5.51172C16.6185 5.51172 15.4006 6.43642 15.3827 7.73456C15.3648 8.71261 16.2603 9.24609 16.923 9.56618C17.5857 9.88626 17.8364 10.1174 17.8364 10.402C17.8364 10.8465 17.2812 11.0599 16.7797 11.0599C16.1495 11.0772 15.5258 10.9301 14.9708 10.6331L14.6484 12.1091C15.2686 12.3563 15.9324 12.4772 16.6006 12.4648C18.4453 12.4825 19.6453 11.5756 19.6632 10.1708ZM12.3738 5.63672L9.52607 12.3764H7.66341L6.26641 6.9882C6.17686 6.65033 6.10522 6.54364 5.85448 6.40137C5.30269 6.13769 4.71869 5.9464 4.11719 5.83233L4.15301 5.63672H7.14401C7.54831 5.63853 7.8907 5.93316 7.94997 6.33024L8.68429 10.2247L10.5111 5.63672H12.3738ZM25.8848 12.3764H24.255L24.0221 11.3628H21.7655L21.4073 12.3764H19.5625L22.2132 6.13469C22.3365 5.83058 22.6353 5.63285 22.9654 5.63678H24.4699L25.8848 12.3764ZM22.2812 9.99389L23.2126 7.46875L23.7499 9.99389H22.2812ZM13.4271 12.3764L14.8778 5.63672H13.1226L11.6719 12.3764H13.4271Z" fill="#1A1F71"/>
</svg>
