<svg width="48" height="48" viewBox="0 0 48 48" fill="none" xmlns="http://www.w3.org/2000/svg">
<path fill-rule="evenodd" clip-rule="evenodd" d="M24 4.36364C13.1551 4.36364 4.36364 13.1551 4.36364 24C4.36364 34.8449 13.1551 43.6364 24 43.6364C34.8449 43.6364 43.6364 34.8449 43.6364 24C43.6364 13.1551 34.8449 4.36364 24 4.36364ZM0 24C0 10.7452 10.7452 0 24 0C37.2548 0 48 10.7452 48 24C48 37.2548 37.2548 48 24 48C10.7452 48 0 37.2548 0 24Z" fill="#FF6633"/>
<path fill-rule="evenodd" clip-rule="evenodd" d="M0 24.429C0 23.2455 0.976833 22.2861 2.18182 22.2861H45.8182C47.0232 22.2861 48 23.2455 48 24.429C48 25.6125 47.0232 26.5718 45.8182 26.5718H2.18182C0.976833 26.5718 0 25.6125 0 24.429Z" fill="#FF6633"/>
<path fill-rule="evenodd" clip-rule="evenodd" d="M18.0011 24.0748C18.1479 30.7627 20.414 37.2015 24.4291 42.4522C28.4443 37.2015 30.7103 30.7627 30.8572 24.0748C30.7103 17.3869 28.4443 10.948 24.4291 5.69738C20.414 10.948 18.1479 17.3869 18.0011 24.0748ZM24.4291 2.32432L22.847 0.857422C17.1368 7.20275 13.8917 15.4374 13.7153 24.0295C13.7147 24.0597 13.7147 24.0899 13.7153 24.1201C13.8917 32.7122 17.1368 40.9468 22.847 47.2921C23.2529 47.7433 23.8272 48.0003 24.4291 48.0003C25.0311 48.0003 25.6053 47.7433 26.0113 47.2921C31.7215 40.9468 34.9666 32.7122 35.143 24.1201C35.1436 24.0899 35.1436 24.0597 35.143 24.0295C34.9666 15.4374 31.7215 7.20275 26.0113 0.857422L24.4291 2.32432Z" fill="#FF6633"/>
</svg>
